<svg width="20" height="20" viewBox="0 0 20 20" fill="none" xmlns="http://www.w3.org/2000/svg">
<path d="M12.8955 9.99151L19.3986 3.4884C19.7795 3.10524 19.9933 2.58689 19.9933 2.04663C19.9933 1.50637 19.7795 0.988086 19.3986 0.604928C19.2085 0.413252 18.9823 0.261092 18.7331 0.15727C18.4839 0.0534476 18.2166 0 17.9466 0C17.6767 0 17.4094 0.0534476 17.1602 0.15727C16.9109 0.261092 16.6848 0.413252 16.4947 0.604928L9.99151 7.10804L3.4884 0.604928C3.09718 0.269901 2.59395 0.0948274 2.07927 0.114707C1.56459 0.134587 1.07635 0.347941 0.712146 0.712146C0.347941 1.07635 0.134587 1.56459 0.114707 2.07927C0.0948274 2.59395 0.269901 3.09718 0.604928 3.4884L7.10804 9.99151L0.604928 16.4946C0.413252 16.6847 0.261155 16.9109 0.157332 17.1602C0.05351 17.4094 0 17.6767 0 17.9466C0 18.2166 0.05351 18.4838 0.157332 18.733C0.261155 18.9822 0.413252 19.2085 0.604928 19.3986C0.988086 19.7795 1.50643 19.9932 2.04669 19.9932C2.58696 19.9932 3.10524 19.7795 3.4884 19.3986L9.99151 12.8955L16.4947 19.3986C16.8798 19.7836 17.402 20 17.9466 20C18.4912 20 19.0135 19.7836 19.3986 19.3986C19.7836 19.0135 20 18.4912 20 17.9466C20 17.402 19.7836 16.8797 19.3986 16.4946L12.8955 9.99151Z" fill="#29FF32"/>
</svg>
