<svg width="118" height="30" viewBox="0 0 118 30" fill="none" xmlns="http://www.w3.org/2000/svg">
<path d="M20.4295 24.142C20.4295 25.2071 20.1613 26.1834 19.6248 27.071C19.0884 27.9586 18.3731 28.6686 17.479 29.2012C16.585 29.7337 15.6015 30 14.5286 30H5.94556C4.87268 30 3.8743 29.7337 2.95043 29.2012C2.05636 28.6686 1.3411 27.9586 0.804662 27.071C0.268221 26.1834 0 25.2071 0 24.142V5.90237C0 4.80769 0.268221 3.81657 0.804662 2.929C1.3411 2.04142 2.05636 1.33136 2.95043 0.798817C3.8743 0.266272 4.87268 0 5.94556 0H14.5286C15.6015 0 16.585 0.266272 17.479 0.798817C18.3731 1.33136 19.0884 2.04142 19.6248 2.929C20.1613 3.81657 20.4295 4.80769 20.4295 5.90237V7.10059C20.4295 7.66272 20.2209 8.1361 19.8036 8.52071C19.4162 8.90533 18.9394 9.09763 18.3731 9.09763H17.1661C16.5999 9.09763 16.1081 8.90533 15.6909 8.52071C15.3035 8.1361 15.1098 7.66272 15.1098 7.10059V5.90237C15.1098 5.48817 14.9161 5.28107 14.5286 5.28107H5.94556C5.79655 5.28107 5.64754 5.34024 5.49852 5.45858C5.37932 5.57692 5.31971 5.72485 5.31971 5.90237V24.142C5.31971 24.2899 5.37932 24.4379 5.49852 24.5858C5.64754 24.7041 5.79655 24.7633 5.94556 24.7633H14.5286C14.6776 24.7633 14.8117 24.7041 14.931 24.5858C15.0502 24.4379 15.1098 24.2899 15.1098 24.142V18.1953C15.1098 17.8402 14.931 17.6627 14.5733 17.6627H11.3994C10.8331 17.6627 10.3414 17.4704 9.92417 17.0858C9.53674 16.6716 9.34302 16.1834 9.34302 15.6213V14.3787C9.34302 13.8166 9.53674 13.3432 9.92417 12.9586C10.3414 12.574 10.8331 12.3817 11.3994 12.3817H18.3731C18.9394 12.3817 19.4162 12.574 19.8036 12.9586C20.2209 13.3432 20.4295 13.8166 20.4295 14.3787V24.142Z" fill="#1E1E1E"/>
<path d="M30.7588 26.6716C30.7588 27.5888 30.416 28.3728 29.7306 29.0237C29.0749 29.6746 28.2852 30 27.3613 30C26.4672 30 25.6775 29.6746 24.992 29.0237C24.3364 28.3728 24.0085 27.5888 24.0085 26.6716C24.0085 25.7544 24.3364 24.9704 24.992 24.3195C25.6775 23.6686 26.4672 23.3432 27.3613 23.3432C28.2852 23.3432 29.0749 23.6686 29.7306 24.3195C30.416 24.9704 30.7588 25.7544 30.7588 26.6716Z" fill="#1E1E1E"/>
<path d="M54.9175 24.142C54.9175 25.2071 54.6493 26.1834 54.1128 27.071C53.5764 27.9586 52.8611 28.6686 51.9671 29.2012C51.073 29.7337 50.0895 30 49.0166 30H40.4336C39.3607 30 38.3623 29.7337 37.4384 29.2012C36.5444 28.6686 35.8291 27.9586 35.2927 27.071C34.7562 26.1834 34.488 25.2071 34.488 24.142V5.90237C34.488 4.80769 34.7562 3.81657 35.2927 2.929C35.8291 2.04142 36.5444 1.33136 37.4384 0.798817C38.3623 0.266272 39.3607 0 40.4336 0H49.0166C50.0895 0 51.073 0.266272 51.9671 0.798817C52.8611 1.33136 53.5764 2.04142 54.1128 2.929C54.6493 3.81657 54.9175 4.80769 54.9175 5.90237V24.142ZM49.5978 24.142V5.90237C49.5978 5.48817 49.4041 5.28107 49.0166 5.28107H40.4336C40.2846 5.28107 40.1355 5.34024 39.9865 5.45858C39.8673 5.57692 39.8077 5.72485 39.8077 5.90237V24.142C39.8077 24.2899 39.8673 24.4379 39.9865 24.5858C40.1355 24.7041 40.2846 24.7633 40.4336 24.7633H49.0166C49.1656 24.7633 49.2998 24.7041 49.419 24.5858C49.5382 24.4379 49.5978 24.2899 49.5978 24.142Z" fill="#1E1E1E"/>
<path d="M65.2468 26.6716C65.2468 27.5888 64.9041 28.3728 64.2186 29.0237C63.563 29.6746 62.7732 30 61.8493 30C60.9552 30 60.1655 29.6746 59.48 29.0237C58.8244 28.3728 58.4966 27.5888 58.4966 26.6716C58.4966 25.7544 58.8244 24.9704 59.48 24.3195C60.1655 23.6686 60.9552 23.3432 61.8493 23.3432C62.7732 23.3432 63.563 23.6686 64.2186 24.3195C64.9041 24.9704 65.2468 25.7544 65.2468 26.6716Z" fill="#1E1E1E"/>
<path d="M86.2061 3.23965C86.2061 3.80178 86.0123 4.28994 85.6249 4.70414C85.2375 5.08876 84.7458 5.28107 84.1497 5.28107H79.4558C79.0684 5.28107 78.8747 5.47337 78.8747 5.85799V27.9586C78.8747 28.5207 78.6661 29.0089 78.2488 29.4231C77.8614 29.8077 77.3846 30 76.8183 30H75.656C75.0898 30 74.5981 29.8077 74.1808 29.4231C73.7934 29.0089 73.5997 28.5207 73.5997 27.9586V5.85799C73.5997 5.47337 73.406 5.28107 73.0185 5.28107H68.28C67.7137 5.28107 67.222 5.08876 66.8048 4.70414C66.4173 4.28994 66.2236 3.80178 66.2236 3.23965V2.04142C66.2236 1.4497 66.4173 0.961539 66.8048 0.576924C67.222 0.192308 67.7137 0 68.28 0H84.1497C84.7458 0 85.2375 0.192308 85.6249 0.576924C86.0123 0.961539 86.2061 1.4497 86.2061 2.04142V3.23965Z" fill="#1E1E1E"/>
<path d="M93.8413 26.6716C93.8413 27.5888 93.4986 28.3728 92.8131 29.0237C92.1574 29.6746 91.3677 30 90.4438 30C89.5497 30 88.76 29.6746 88.0745 29.0237C87.4189 28.3728 87.091 27.5888 87.091 26.6716C87.091 25.7544 87.4189 24.9704 88.0745 24.3195C88.76 23.6686 89.5497 23.3432 90.4438 23.3432C91.3677 23.3432 92.1574 23.6686 92.8131 24.3195C93.4986 24.9704 93.8413 25.7544 93.8413 26.6716Z" fill="#1E1E1E"/>
<path d="M118 24.142C118 25.2071 117.732 26.1834 117.195 27.071C116.659 27.9586 115.944 28.6686 115.05 29.2012C114.155 29.7337 113.172 30 112.099 30H103.516C102.443 30 101.445 29.7337 100.521 29.2012C99.6269 28.6686 98.9116 27.9586 98.3752 27.071C97.8387 26.1834 97.5705 25.2071 97.5705 24.142V5.90237C97.5705 4.80769 97.8387 3.81657 98.3752 2.929C98.9116 2.04142 99.6269 1.33136 100.521 0.798817C101.445 0.266272 102.443 0 103.516 0H112.099C113.172 0 114.155 0.266272 115.05 0.798817C115.944 1.33136 116.659 2.04142 117.195 2.929C117.732 3.81657 118 4.80769 118 5.90237V7.10059C118 7.66272 117.791 8.1361 117.374 8.52071C116.987 8.90533 116.51 9.09763 115.944 9.09763H114.737C114.17 9.09763 113.679 8.90533 113.261 8.52071C112.874 8.1361 112.68 7.66272 112.68 7.10059V5.90237C112.68 5.48817 112.487 5.28107 112.099 5.28107H103.516C103.367 5.28107 103.218 5.34024 103.069 5.45858C102.95 5.57692 102.89 5.72485 102.89 5.90237V24.142C102.89 24.2899 102.95 24.4379 103.069 24.5858C103.218 24.7041 103.367 24.7633 103.516 24.7633H112.099C112.248 24.7633 112.382 24.7041 112.501 24.5858C112.621 24.4379 112.68 24.2899 112.68 24.142V18.1953C112.68 17.8402 112.501 17.6627 112.144 17.6627H108.97C108.404 17.6627 107.912 17.4704 107.495 17.0858C107.107 16.6716 106.914 16.1834 106.914 15.6213V14.3787C106.914 13.8166 107.107 13.3432 107.495 12.9586C107.912 12.574 108.404 12.3817 108.97 12.3817H115.944C116.51 12.3817 116.987 12.574 117.374 12.9586C117.791 13.3432 118 13.8166 118 14.3787V24.142Z" fill="#1E1E1E"/>
</svg>