<svg width="373" height="373" viewBox="0 0 373 373" fill="none" xmlns="http://www.w3.org/2000/svg">
<path d="M372.5 186.25C372.5 289.113 289.113 372.5 186.25 372.5C83.387 372.5 0 289.113 0 186.25C0 83.387 83.387 0 186.25 0C289.113 0 372.5 83.387 372.5 186.25Z" fill="url(#paint0_linear_243_17)"/>
<path d="M344.415 119.365C335.752 98.8718 323.198 80.2533 307.449 64.54C291.74 48.7852 273.124 36.229 252.632 27.5679C231.388 18.5711 208.548 13.9563 185.478 14.0003C162.414 13.9549 139.577 18.5653 118.337 27.5553C97.8456 36.2173 79.2293 48.7733 63.52 64.5274C47.7667 80.239 35.2105 98.8578 26.547 119.352C17.5617 140.597 12.9542 163.436 13.0004 186.503C12.9529 209.568 17.5605 232.406 26.547 253.648C35.2092 274.143 47.7656 292.762 63.52 308.473C79.2293 324.227 97.8456 336.783 118.337 345.445C139.577 354.435 162.414 359.045 185.478 359C208.539 359.053 231.373 354.451 252.613 345.47C273.105 336.809 291.721 324.253 307.43 308.498C323.181 292.786 335.735 274.167 344.396 253.673C353.404 232.431 358.031 209.589 358 186.516C358.034 163.446 353.413 140.607 344.415 119.365Z" fill="black"/>
<path d="M296.374 106.734L294.725 129.063C294.725 162.1 288.527 190.124 279.091 213.626L219.638 208.692L226.26 184.628L213.679 194.362L185.33 131.639L156.895 194.356L144.314 184.621L150.936 208.686L92.6223 213.526C82.6894 189.687 76.0673 161.213 75.7825 127.566L74.1933 106.727L101.482 97.059C155.711 77.8441 214.896 77.8441 269.125 97.059L296.374 106.734Z" fill="url(#paint1_linear_243_17)"/>
<path d="M273.303 226.678C241.809 291.652 186.661 317.352 186.661 317.352C186.661 317.352 131.235 291.666 98.7344 226.995L156.346 239.047L185.284 302.34L214.202 239.047L273.303 226.678Z" fill="url(#paint2_linear_243_17)"/>
<defs>
<linearGradient id="paint0_linear_243_17" x1="186.25" y1="0" x2="186.25" y2="630.5" gradientUnits="userSpaceOnUse">
<stop stop-color="#29FF32"/>
<stop offset="1"/>
</linearGradient>
<linearGradient id="paint1_linear_243_17" x1="186.183" y1="-229.172" x2="186.183" y2="1606.96" gradientUnits="userSpaceOnUse">
<stop stop-color="#29FF32"/>
<stop offset="1"/>
</linearGradient>
<linearGradient id="paint2_linear_243_17" x1="186.019" y1="2.06669" x2="186.019" y2="647.683" gradientUnits="userSpaceOnUse">
<stop stop-color="#29FF32"/>
<stop offset="1"/>
</linearGradient>
</defs>
</svg>
