<svg width="42" height="39" viewBox="0 0 42 39" fill="none" xmlns="http://www.w3.org/2000/svg">
<path d="M39.0077 1L23.3999 12.5922L26.2862 5.75294L39.0077 1Z" stroke="#22C029" stroke-width="0.5" stroke-linecap="round" stroke-linejoin="round"/>
<path d="M2.97665 1L18.459 12.702L15.7139 5.75294L2.97665 1ZM33.3923 27.8706L29.2355 34.2392L38.1296 36.6863L40.6865 28.0118L33.3923 27.8706ZM1.32959 28.0118L3.87077 36.6863L12.7649 34.2392L8.60802 27.8706L1.32959 28.0118Z" stroke="#22C029" stroke-width="0.5" stroke-linecap="round" stroke-linejoin="round"/>
<path d="M12.2626 17.1098L9.78418 20.8588L18.6156 21.251L18.3018 11.7608L12.2626 17.1098ZM29.7214 17.1098L23.6038 11.651L23.3999 21.251L32.2156 20.8588L29.7214 17.1098ZM12.7646 34.2392L18.0665 31.651L13.4861 28.0745L12.7646 34.2392ZM23.9175 31.651L29.2352 34.2392L28.4979 28.0745L23.9175 31.651Z" stroke="#22C029" stroke-width="0.5" stroke-linecap="round" stroke-linejoin="round"/>
<path d="M29.2352 34.2392L23.9176 31.651L24.3411 35.1176L24.2941 36.5765L29.2352 34.2392ZM12.7646 34.2392L17.7058 36.5765L17.6745 35.1176L18.0666 31.651L12.7646 34.2392Z" stroke="#22C029" stroke-width="0.5" stroke-linecap="round" stroke-linejoin="round"/>
<path d="M17.7844 25.7842L13.3608 24.4822L16.4824 23.0548L17.7844 25.7842ZM24.2001 25.7842L25.502 23.0548L28.6393 24.4822L24.2001 25.7842Z" stroke="#22C029" stroke-width="0.5" stroke-linecap="round" stroke-linejoin="round"/>
<path d="M12.7648 34.2392L13.5177 27.8706L8.60791 28.0117L12.7648 34.2392ZM28.4824 27.8706L29.2354 34.2392L33.3922 28.0117L28.4824 27.8706ZM32.2158 20.8588L23.4001 21.2509L24.2158 25.7843L25.5177 23.0549L28.655 24.4823L32.2158 20.8588ZM13.3609 24.4823L16.4981 23.0549L17.7844 25.7843L18.6158 21.2509L9.78438 20.8588L13.3609 24.4823Z" stroke="#22C029" stroke-width="0.5" stroke-linecap="round" stroke-linejoin="round"/>
<path d="M9.78418 20.8588L13.4861 28.0745L13.3607 24.4823L9.78418 20.8588ZM28.6548 24.4823L28.4979 28.0745L32.2156 20.8588L28.6548 24.4823ZM18.6156 21.2509L17.7842 25.7843L18.8195 31.1333L19.0548 24.0902L18.6156 21.2509ZM23.3999 21.2509L22.9763 24.0745L23.1646 31.1333L24.2156 25.7843L23.3999 21.2509Z" stroke="#22C029" stroke-width="0.5" stroke-linecap="round" stroke-linejoin="round"/>
<path d="M24.2157 25.7844L23.1648 31.1334L23.9177 31.651L28.4981 28.0746L28.655 24.4824L24.2157 25.7844ZM13.3608 24.4824L13.4863 28.0746L18.0667 31.651L18.8197 31.1334L17.7844 25.7844L13.3608 24.4824Z" stroke="#22C029" stroke-width="0.5" stroke-linecap="round" stroke-linejoin="round"/>
<path d="M24.2941 36.5764L24.3411 35.1176L23.949 34.7725H18.0352L17.6745 35.1176L17.7058 36.5764L12.7646 34.2392L14.4901 35.6509L17.9882 38.0823H23.996L27.5097 35.6509L29.2352 34.2392L24.2941 36.5764Z" stroke="#22C029" stroke-width="0.5" stroke-linecap="round" stroke-linejoin="round"/>
<path d="M23.9175 31.651L23.1645 31.1334H18.8194L18.0665 31.651L17.6743 35.1177L18.0351 34.7726H23.9488L24.341 35.1177L23.9175 31.651Z" stroke="#22C029" stroke-width="0.5" stroke-linecap="round" stroke-linejoin="round"/>
<path d="M39.6667 13.3451L41 6.9451L39.0078 1L23.9176 12.2L29.7216 17.1098L37.9255 19.5098L39.7451 17.3922L38.9608 16.8275L40.2157 15.6824L39.2431 14.9294L40.498 13.9726L39.6667 13.3451ZM1 6.9451L2.33333 13.3451L1.48627 13.9726L2.74118 14.9294L1.78431 15.6824L3.03922 16.8275L2.2549 17.3922L4.05882 19.5098L12.2627 17.1098L18.0667 12.2L2.97647 1L1 6.9451Z" stroke="#22C029" stroke-width="0.5" stroke-linecap="round" stroke-linejoin="round"/>
<path d="M37.9257 19.5098L29.7217 17.1098L32.2159 20.8588L28.4982 28.0745L33.3923 28.0118H40.6865L37.9257 19.5098ZM12.2629 17.1098L4.059 19.5098L1.32959 28.0118H8.60802L13.4865 28.0745L9.78449 20.8588L12.2629 17.1098ZM23.4002 21.251L23.9178 12.2L26.3021 5.75293H15.7139L18.0668 12.2L18.6159 21.251L18.8041 24.1059L18.8198 31.1333H23.1649L23.1963 24.1059L23.4002 21.251Z" stroke="#22C029" stroke-width="0.5" stroke-linecap="round" stroke-linejoin="round"/>
</svg>
