<svg width="367" height="367" viewBox="0 0 367 367" fill="none" xmlns="http://www.w3.org/2000/svg">
<path fill-rule="evenodd" clip-rule="evenodd" d="M341.84 239.02C330.959 269.847 311.342 296.841 285.382 316.709C259.421 336.578 228.239 348.461 195.64 350.91H170.48C137.881 348.461 106.699 336.578 80.7389 316.709C54.7783 296.841 35.1611 269.847 24.2803 239.02H341.84Z" fill="#D6D6D6"/>
<path fill-rule="evenodd" clip-rule="evenodd" d="M351.371 183.07C351.394 202.126 348.171 221.047 341.84 239.02H24.2803C17.9535 221.046 14.7312 202.126 14.7506 183.07C14.7312 164.015 17.9538 145.095 24.2806 127.12H341.841C348.173 145.093 351.396 164.014 351.371 183.07Z" fill="#D6D6D6"/>
<path fill-rule="evenodd" clip-rule="evenodd" d="M341.841 127.12H24.2806C35.1621 96.2833 54.7857 69.2813 80.7563 49.4104C106.727 29.5395 137.921 17.6593 170.53 15.2201H195.59C228.2 17.6593 259.394 29.5395 285.364 49.4104C311.335 69.2813 330.959 96.2833 341.841 127.12Z" fill="#D6D6D6"/>
<path d="M330.59 280.41C326.88 285.923 322.874 291.231 318.59 296.31L318.66 296.38C315.39 300.28 311.92 304.04 308.37 307.59C304.82 311.14 300.99 314.59 297.16 317.88L297.08 317.81C277.768 334.213 255.229 346.381 230.92 353.53H221.26C220.7 352.75 221.32 352.23 221.7 351.7C226.42 344.88 231.34 338.22 235.93 331.31C239.07 326.6 242.29 321.94 245.36 317.18C245.767 316.565 246.024 315.863 246.11 315.13C246.164 314.362 246.037 313.591 245.74 312.88C244.85 310.55 243.69 308.35 242.6 306.11C242.104 305.44 241.844 304.624 241.86 303.79L241.94 303.71C242.797 302.805 243.846 302.104 245.01 301.66H245.13L245.35 301.58C247.15 302.22 248.49 303.53 249.98 304.63C251.77 305.96 252.24 305.88 253.38 304.04C257.234 297.84 260.9 291.544 264.38 285.15C264.73 284.51 265.08 283.87 265.38 283.22L266.38 281.3C266.72 280.65 267.06 280.01 267.38 279.36C267.7 278.71 268.05 278.07 268.38 277.42C268.698 276.574 269.233 275.826 269.93 275.25L270.41 274.77L270.68 274.52L270.92 274.3C271.07 274.16 271.22 274.02 271.37 273.9L271.67 273.65L272.38 273.09L272.46 273.04L272.86 272.75C273.17 272.53 273.47 272.33 273.78 272.14L274.2 271.89L274.65 271.64L275.09 271.41L275.51 271.21L275.94 271.01L276.25 270.87L276.81 270.65L277.11 270.53L277.75 270.31L278.08 270.21H278.18C278.58 270.09 278.99 269.99 279.39 269.89L280.39 269.69L280.91 269.6L281.41 269.53L282.07 269.45H282.29C282.51 269.45 282.73 269.43 282.95 269.39H284.07C285.962 269.344 287.854 269.441 289.73 269.68L290.32 269.77H290.88L291.58 269.89L291.99 269.98C294.454 270.531 296.877 271.253 299.24 272.14C300.48 272.58 301.72 273.02 302.98 273.42C312.122 276.369 321.485 278.583 330.98 280.04L330.59 280.41Z" fill="#57595B"/>
<path d="M129.96 300.11C129.315 299.902 128.638 299.807 127.96 299.83C126.31 299.83 124.65 299.83 122.96 299.83C120.78 299.77 120.52 299.48 120.24 297.35C120 295.57 119.94 293.78 119.63 292.01L119.54 291.82C119.055 291.182 118.415 290.68 117.68 290.36C116.272 289.617 115.199 288.365 114.68 286.86C114.536 286.384 114.466 285.888 114.47 285.39C114.46 285.29 114.46 285.19 114.47 285.09C114.465 285 114.465 284.91 114.47 284.82C114.503 284.295 114.577 283.774 114.69 283.26C115.12 279.26 114.36 277.78 110.83 275.97C107.969 274.398 104.654 273.854 101.44 274.43C100.708 274.626 99.9367 274.615 99.211 274.397C98.4853 274.18 97.8342 273.766 97.3302 273.2C96.9102 272.81 96.5002 272.41 96.1202 272C95.6329 271.472 95.1787 270.914 94.7602 270.33C92.7339 267.536 91.7663 264.112 92.0302 260.67C92.0001 260.177 92.0001 259.683 92.0302 259.19C92.0502 258.925 92.1005 258.664 92.1802 258.41C92.1755 258.394 92.1755 258.377 92.1802 258.36C92.194 258.313 92.2107 258.266 92.2302 258.22C92.2302 258.14 92.2302 258.06 92.2302 257.99C92.2349 257.974 92.2349 257.957 92.2302 257.94C92.3102 257.54 92.3502 257.14 92.4302 256.75C92.4255 256.72 92.4255 256.69 92.4302 256.66C92.4302 256.59 92.4302 256.53 92.4302 256.47C92.4302 256.41 92.5102 256.17 92.5602 256.02C92.8002 254.52 93.1902 253.02 93.4202 251.56C93.5402 250.8 93.9802 249.92 93.0202 249.33C80.8176 255.417 68.258 260.76 55.4102 265.33C52.7102 266.33 49.9902 267.21 47.2602 268.11C47.2801 268.172 47.2801 268.238 47.2602 268.3C47.2602 268.3 47.1802 268.36 47.1302 268.37C45.3802 268.55 43.6802 268.07 41.9502 268.02C42.0002 268.02 42.0502 267.92 42.1102 267.92C42.1786 267.921 42.246 267.904 42.3056 267.871C42.3653 267.837 42.4151 267.789 42.4502 267.73C41.5047 267.288 40.4896 267.014 39.4502 266.92V277.7C39.7302 279.39 40.1002 281.06 40.5202 282.7C40.4599 282.459 40.323 282.244 40.1301 282.087C39.9372 281.93 39.6986 281.84 39.4502 281.83V294.64C43.1702 299.16 47.1002 303.494 51.2402 307.64C71.4774 327.902 96.2163 343.095 123.44 351.98L124.15 352.2C124.187 351.868 124.187 351.533 124.15 351.2C123.8 348.32 123.57 345.43 123.27 342.56C122.41 334.56 121.6 326.56 120.9 318.51C120.7 316.37 120.517 314.23 120.35 312.09C120.239 311.337 120.333 310.567 120.624 309.863C120.914 309.158 121.39 308.546 122 308.09C122.989 307.338 124.024 306.65 125.1 306.03C126.8 304.98 128.6 304.03 130.2 302.88C131.77 301.81 131.59 300.73 129.96 300.11ZM42.9602 291.24C43.0802 291.75 43.2102 292.24 43.3302 292.67C43.1185 292.22 42.9897 291.736 42.9502 291.24H42.9602ZM40.9602 283.57C40.9602 283.4 40.8802 283.22 40.8502 283.04C41.4602 285.46 42.1702 287.86 42.7802 290.28C42.7754 290.363 42.7754 290.447 42.7802 290.53C42.2302 288.2 41.5902 285.89 40.9502 283.57H40.9602Z" fill="#57595B"/>
<path d="M238.64 25.0903C252.27 26.3303 265.72 28.4402 278.55 33.4302C282.42 34.9402 286.11 36.8202 288.98 39.9702C290.32 41.4502 291.3 43.1102 290.71 45.2102C290.51 45.9202 290.71 46.1402 291.33 46.4102C296.73 48.6902 300.02 53.1602 302.62 58.0702C311.28 74.4702 311.84 91.3802 305.38 108.64C304.38 111.37 302.63 113.71 301.29 116.26C300.89 116.89 300.23 116.82 299.63 116.86C280.31 118.05 266.28 127.86 255.97 143.68C255.486 144.743 254.808 145.706 253.97 146.52C253.646 146.724 253.263 146.813 252.882 146.773C252.502 146.733 252.145 146.567 251.87 146.3C251.165 145.604 250.319 145.066 249.39 144.721C248.461 144.377 247.469 144.233 246.48 144.3C245.42 144.4 245.41 143.65 245.77 142.91C246.298 141.938 246.911 141.015 247.6 140.15C250.97 135.5 254.31 130.85 256.19 125.33C257.86 120.45 258.43 115.5 256.98 110.49C255.48 105.33 255.77 100.07 256.09 94.8502C256.502 88.6446 257.571 82.5001 259.28 76.5202C261.149 69.4202 264.371 62.7479 268.77 56.8702C270.191 55.2721 271.884 53.9382 273.77 52.9302C274.035 52.8005 274.27 52.6196 274.464 52.3981C274.657 52.1765 274.805 51.9186 274.898 51.6394C274.991 51.3603 275.028 51.0654 275.006 50.772C274.984 50.4786 274.904 50.1924 274.77 49.9302C272.71 42.9302 268.02 38.3702 261.32 35.7802C256.451 33.9864 251.299 33.0821 246.11 33.1102C240.592 32.978 235.071 33.2823 229.6 34.0202C229.249 34.0138 228.904 33.9174 228.6 33.7402C224.52 30.9202 220.18 28.7402 215.15 28.2502C210.811 27.918 206.447 28.1026 202.15 28.8002C200.858 29.0114 199.546 29.0685 198.24 28.9702C197.947 28.9974 197.652 28.9576 197.376 28.8536C197.101 28.7497 196.853 28.5843 196.65 28.3702C202.9 26.5802 209.32 25.8702 215.75 25.1402C217.411 24.9673 219.08 24.8838 220.75 24.8902C221.58 24.7802 233.5 24.7802 234.48 24.8902H236.48C237.207 24.8235 237.939 24.8913 238.64 25.0903Z" fill="#CF9A6D"/>
<path d="M151.441 319.12C151.371 319.85 151.341 320.6 151.341 321.34V322.23C151.401 322.796 151.36 323.368 151.221 323.92C151.171 324.21 151.101 324.49 151.051 324.78C150.982 325.166 150.959 325.559 150.981 325.95C150.981 326.48 150.981 327.02 150.981 327.55C150.841 333.75 150.281 339.92 149.851 346.1C149.761 347.4 149.801 348.71 149.741 350.01C149.848 351.254 149.492 352.493 148.741 353.49H128.841L126.211 352.7L125.801 352.57C124.971 350.64 125.191 348.49 124.941 346.47C124.011 338.53 123.291 330.57 122.511 322.62C122.391 321.38 122.281 320.14 122.171 318.9C122.001 316.9 121.831 314.9 121.591 312.95C121.388 311.96 121.522 310.93 121.972 310.024C122.421 309.118 123.16 308.389 124.071 307.95C125.891 306.95 127.641 305.84 129.401 304.77C130.055 304.384 130.677 303.946 131.261 303.46C131.961 302.88 132.731 302.26 132.421 301.23C132.245 300.812 131.944 300.457 131.559 300.216C131.174 299.974 130.724 299.857 130.271 299.88C128.551 299.73 126.841 299.46 125.121 299.37C121.181 299.18 120.991 298.99 121.121 295C121.071 294.31 121.209 293.618 121.521 293L121.661 292.89C122.421 292.34 123.251 292.66 124.041 292.89C127.333 293.67 130.674 294.225 134.041 294.55C135.886 294.738 137.692 295.199 139.401 295.92C143.03 297.58 146.82 298.863 150.711 299.75C151.421 299.9 152.261 299.94 152.571 300.75C152.601 300.806 152.621 300.867 152.631 300.93C152.221 307.01 152.001 313.07 151.441 319.12Z" fill="#57595B"/>
<path d="M217.9 353.49H186.81C186.53 352.61 187.17 352.06 187.57 351.49C191.37 345.75 195.08 339.95 198.82 334.17C202.56 328.39 206.13 322.84 209.68 317.1C210.18 316.29 210.61 315.37 211.68 315.1C219.289 313.661 226.682 311.255 233.68 307.94C235.807 306.798 237.99 305.764 240.22 304.84C241.08 304.84 241.32 305.57 241.65 306.15C242.87 308.32 243.77 310.64 244.79 312.9C245.052 313.463 245.154 314.088 245.086 314.705C245.017 315.322 244.78 315.909 244.4 316.4C238.46 325.28 232.6 334.21 226.28 342.83C224.16 345.71 222.15 348.68 220.04 351.58C219.495 352.383 218.76 353.04 217.9 353.49Z" fill="#57595B"/>
<path d="M171.891 353.49H152.821C152.211 352.79 152.551 352.05 152.771 351.34C155.166 342.999 158.459 334.942 162.591 327.31C162.906 326.828 163.069 326.262 163.058 325.686C163.048 325.11 162.864 324.55 162.531 324.08C160.971 321.41 159.401 318.69 159.891 315.38C160.251 314.16 161.291 313.55 162.191 312.82C164.561 310.717 167.221 308.965 170.091 307.62C173.591 306.18 176.931 306.13 179.861 308.94C182.591 311.56 185.241 314.25 186.371 318.03C185.371 321.68 182.641 324.03 179.471 325.54C178.41 325.982 177.489 326.704 176.808 327.628C176.126 328.553 175.709 329.646 175.601 330.79C174.461 337.36 173.421 343.94 172.851 350.59C172.86 351.636 172.523 352.656 171.891 353.49Z" fill="#A1587B"/>
<path d="M217.9 353.49C226.954 341.21 235.67 328.697 244.05 315.95C244.348 315.58 244.536 315.133 244.593 314.661C244.649 314.189 244.572 313.711 244.37 313.28C243.24 310.404 241.903 307.613 240.37 304.93C238.602 302.417 237.251 299.634 236.37 296.69C235.95 295.4 236.98 294.47 238.37 294.62C239.465 294.814 240.495 295.275 241.37 295.96C243.2 297.17 244.85 298.62 246.59 299.96C247.02 300.3 247.47 300.62 247.89 300.96C250.89 303.4 250.89 303.42 252.89 300.23C254.916 297.287 256.692 294.179 258.2 290.94C264.271 280.894 269.618 270.427 274.2 259.62C276.639 253.979 278.742 248.199 280.5 242.31C280.98 240.72 280.64 240.01 279 239.46C274.801 238.213 271.039 235.804 268.15 232.51C263.81 227.33 262.91 221.25 263.55 214.79C263.64 213.79 263.7 212.86 263.8 211.91C263.994 210.738 263.775 209.535 263.18 208.506C262.586 207.478 261.653 206.687 260.54 206.27C259.78 205.91 258.77 205.67 258.79 204.48C259.141 204.011 259.646 203.679 260.216 203.544C260.786 203.409 261.386 203.478 261.91 203.74C265.3 205.39 266.91 207.91 266.55 211.86C266.055 215.416 266.055 219.024 266.55 222.58C268.16 231.12 274.09 235.38 281.98 237.32C284.13 237.84 284.66 238.47 283.86 240.51C283.337 242.073 282.906 243.666 282.57 245.28C282.71 247.49 281.67 249.42 280.97 251.4C278.223 259.529 274.749 267.394 270.59 274.9C270.464 275.145 270.291 275.362 270.08 275.54C267.58 280.13 265.16 284.77 262.57 289.31C259.49 294.69 256.26 299.97 253.14 305.31C252.49 306.42 251.73 306.31 250.91 305.73C248.99 304.41 247.11 303.02 245.22 301.66C242.98 301.13 241.7 299.12 239.65 298.12C239.99 300.21 241.82 301.63 241.9 303.73C243.3 306.65 244.9 309.46 246.08 312.51C246.67 314.08 246.97 315.45 245.88 317.13C238.2 329.06 230.03 340.66 221.8 352.21C221.457 352.552 221.239 352.999 221.18 353.48L217.9 353.49Z" fill="#808185"/>
<path d="M211.59 315.31L202.17 329.82C197.037 337.707 191.91 345.604 186.79 353.51H185.59C185.527 353.435 185.482 353.346 185.459 353.251C185.436 353.155 185.437 353.056 185.46 352.96C188.67 347.58 191.85 342.19 195.2 336.9C195.552 336.434 195.863 335.939 196.13 335.42C202.13 325.19 208.56 315.27 214.49 305.03C217.49 299.79 220.95 294.79 223.78 289.42C231.59 277.55 238.86 265.35 245.45 252.77C248.135 247.787 250.297 242.539 251.9 237.11C252.988 233.411 253.484 229.564 253.37 225.71C253.52 225.4 253.8 225.12 253.78 224.77C253.53 220.71 254.63 216.67 254.06 212.6C254.018 212.396 253.992 212.189 253.98 211.98C253.98 211.44 253.9 210.68 254.52 210.57C255.14 210.46 255.46 211.28 255.52 211.83C255.851 213.66 256.048 215.512 256.11 217.37C256.23 221.91 256.79 226.37 256.27 230.99C255.888 235.038 255.015 239.024 253.67 242.86C249.3 254.47 243.14 265.17 236.8 275.78C229.22 288.45 221.11 300.78 213.32 313.32C212.86 314.05 212.59 314.94 211.59 315.31Z" fill="#808185"/>
<path d="M185.59 353.07V353.49H176.06C175.52 352.88 175.78 352.19 175.82 351.49C176.28 344.28 176.99 337.1 177.56 329.9C177.545 329.276 177.711 328.661 178.037 328.129C178.364 327.596 178.837 327.17 179.4 326.9C180.691 326.243 181.886 325.412 182.95 324.43C184.61 322.94 185.43 322.99 186.84 324.81C188.714 327.299 190.317 329.981 191.62 332.81C194.29 338.34 194.41 336.75 191.48 342.43C189.59 346.03 187.59 349.57 185.59 353.07Z" fill="#CBE6D3"/>
<path d="M185.59 353.07C187.44 348.31 190.151 343.98 192.461 339.45C192.812 338.877 192.997 338.217 192.997 337.545C192.997 336.873 192.812 336.214 192.461 335.64C190.742 332.102 188.781 328.687 186.591 325.42C185.091 323.31 184.891 323.32 183.061 325.06C182.711 325.39 182.391 325.86 181.971 325.99C177.691 327.37 177.901 330.99 177.641 334.42C177.161 340.78 176.551 347.13 176.001 353.49L171.891 353.49C172.677 344.994 173.912 336.546 175.591 328.18C175.646 327.678 175.848 327.204 176.172 326.816C176.496 326.428 176.927 326.145 177.411 326C181.274 324.563 184.415 321.659 186.151 317.92C187.011 317.92 187.291 318.61 187.621 319.18C190.532 324.317 193.098 329.642 195.301 335.12C195.462 335.384 195.567 335.678 195.61 335.984C195.653 336.29 195.633 336.602 195.551 336.9C193.011 341.19 190.551 345.5 187.891 349.75C187.161 350.89 186.75 352.31 185.59 353.07Z" fill="#8CB6A8"/>
<path d="M160.201 315.4C160.24 318.521 161.274 321.547 163.151 324.04C163.537 324.5 163.748 325.08 163.748 325.68C163.748 326.28 163.537 326.861 163.151 327.32C158.581 335.38 155.491 344.05 152.811 352.87C152.785 353.076 152.785 353.284 152.811 353.49H151.981C151.718 353.125 151.539 352.706 151.456 352.264C151.373 351.821 151.388 351.366 151.501 350.93C152.691 340.93 153.651 330.93 154.771 320.93C155.258 319.691 155.991 318.563 156.923 317.613C157.856 316.663 158.971 315.91 160.201 315.4Z" fill="#CBE6D3"/>
<path d="M132.37 303.37C130.01 305.268 127.444 306.895 124.72 308.22C123.8 308.591 123.038 309.271 122.567 310.144C122.096 311.017 121.945 312.028 122.14 313C122.37 315.06 122.59 317.11 122.81 319.17C123.57 326.31 124.29 333.45 125.01 340.6C125.43 344.6 125.821 348.66 126.211 352.7L125.801 352.57L124.36 352.11L123.65 351.89C123.19 347.224 122.737 342.557 122.29 337.89L120.91 323.56C120.74 321.75 120.57 319.93 120.41 318.12C120.204 315.84 119.99 313.56 119.77 311.28C119.52 308.81 121.4 307.75 122.98 306.66C125.13 305.18 127.45 303.95 129.69 302.61C130.25 302.28 131.19 302.07 130.91 301.24C130.7 300.58 129.83 300.42 129.14 300.41C126.94 300.41 124.73 300.41 122.52 300.41C120.01 300.41 119.78 300.1 119.63 297.54C119.354 295.637 119.237 293.713 119.28 291.79L119.51 291.74C119.727 291.664 119.958 291.633 120.187 291.649C120.416 291.665 120.64 291.727 120.845 291.832C121.05 291.936 121.231 292.081 121.378 292.258C121.525 292.435 121.635 292.64 121.7 292.86C121.7 294.58 121.24 296.55 121.92 297.96C122.79 299.76 125.06 298.22 126.6 298.79C128.3 299.43 130.18 298.7 131.86 299.6C133.54 300.5 133.93 302.01 132.37 303.37Z" fill="#7F8185"/>
<path d="M155.291 320.31C155.221 325.19 154.361 330.01 153.951 334.86C153.541 339.71 152.901 344.27 152.421 348.98C152.112 350.463 151.968 351.976 151.991 353.49H148.681L150.441 325.69C151.341 323.25 152.701 321.22 155.291 320.31Z" fill="#8CB6A8"/>
<path d="M39.6602 277.62C41.1817 281.784 42.3002 286.083 43.0002 290.46C43.2302 290.92 43.3201 291.31 42.5801 291.27C41.8518 288.03 40.8756 284.851 39.6602 281.76V277.62Z" fill="#7E7F83"/>
<path d="M229.091 33.4302L229.501 33.8502C232.441 34.8502 234.051 37.4102 235.651 39.7702C241.071 47.7702 241.561 56.4902 239.051 65.5702C236.051 76.3702 229.761 85.2102 222.591 93.5702C220.251 96.2902 217.784 98.8968 215.191 101.39C214.674 102.053 213.981 102.556 213.191 102.84C212.651 102.89 212.511 102.35 211.931 101.84C212.404 102.571 212.742 103.38 212.931 104.23C213.161 109.14 211.931 113.51 208.311 117.04C206.451 118.87 206.391 118.91 207.691 121.27C208.829 123.505 209.208 126.05 208.771 128.52C208.827 129.478 208.673 130.437 208.321 131.33C207.041 134.1 204.961 134.83 202.321 133.33C200.131 132.13 198.551 130.19 196.621 128.66C196.431 128.15 196.371 127.56 195.901 127.2C192.571 124.68 189.751 121.43 185.651 119.99C179.891 116.71 174.141 116.99 168.551 120.32C167.247 120.977 166.146 121.975 165.365 123.207C164.583 124.44 164.149 125.861 164.111 127.32C163.987 127.934 163.68 128.495 163.231 128.93C158.921 133.16 156.931 138.64 155.281 144.2C152.379 154.225 150.766 164.578 150.481 175.01C150.331 179.14 149.951 183.28 150.171 187.41C150.561 194.84 150.831 202.32 153.221 209.48C153.776 211.194 154.626 212.798 155.731 214.22C155.911 214.52 156.155 214.775 156.446 214.97C156.736 215.164 157.066 215.292 157.411 215.345C157.757 215.397 158.11 215.373 158.445 215.274C158.78 215.174 159.089 215.002 159.351 214.77C160.201 214.18 160.981 213.49 161.821 212.88C165.431 210.26 168.701 210.47 171.881 213.53C172.471 214.1 173.081 214.67 173.621 215.3C174.921 216.8 174.821 217.3 172.941 217.82C171.351 218.27 169.781 218.82 168.181 219.23C167.314 219.443 166.482 219.78 165.711 220.23C162.771 221.5 159.881 222.88 156.951 224.17C154.171 224.9 151.951 226.78 149.381 227.93C147.121 228.93 144.981 230.18 142.661 231.09C135.866 233.716 128.425 234.173 121.361 232.4C117.681 231.09 115.011 228.35 112.261 225.76C111.32 224.855 110.482 223.849 109.761 222.76C108.883 221.51 108.332 220.06 108.158 218.542C107.983 217.025 108.19 215.487 108.761 214.07C108.884 213.71 109.08 213.379 109.336 213.097C109.593 212.815 109.904 212.588 110.251 212.43C119.171 208.14 125.331 200.95 130.461 192.8C136.231 183.62 140.781 173.85 142.461 163.04C144.331 150.87 143.561 138.95 137.691 127.77C136.602 125.851 135.407 123.995 134.111 122.21C133.812 121.695 133.394 121.259 132.891 120.94C133.347 121.238 133.727 121.639 134.001 122.11C134.231 122.55 134.541 122.96 134.391 123.5C133.811 124.27 133.191 123.74 132.801 123.39C130.252 121.282 127.412 119.55 124.371 118.25C121.951 115.61 119.071 115.25 115.721 116.18C113.484 116.828 111.316 117.695 109.251 118.77C107.313 119.691 105.646 121.096 104.411 122.85C103.191 124.43 102.001 126.04 100.881 127.7C99.8806 128.87 99.0606 130.11 98.1706 131.33C97.8906 131.71 97.5606 132.19 97.0206 132.04C96.4806 131.89 96.4606 131.31 96.4006 130.83C96.2583 128.429 96.423 126.02 96.8906 123.66C97.0928 120.922 97.8265 118.248 99.0506 115.79C100.201 113.23 101.301 110.64 102.531 108.12C106.266 100.803 111.042 94.0666 116.711 88.1202C119.991 84.5502 122.301 80.2802 125.141 76.3902C135.912 61.6407 149.744 49.3943 165.691 40.4902C171.113 37.3685 176.802 34.7348 182.691 32.6202C185.381 32.2502 187.821 31.0702 190.391 30.3102C193.111 29.7902 195.741 28.8002 198.551 28.6602C203.301 29.7302 207.701 31.9802 212.551 32.7702C216.551 33.4102 220.551 33.9902 224.631 33.4202C226.109 33.1896 227.614 33.1929 229.091 33.4302Z" fill="#F3A575"/>
<path d="M92.2307 255.96C92.2307 253.67 93.4307 251.55 93.1707 249.22C94.5607 246.32 94.7607 243.12 95.4107 240.04C97.3653 231.564 98.1359 222.858 97.7007 214.17C97.0729 204.888 95.6477 195.678 93.4407 186.64C93.2063 185.846 92.8076 185.11 92.2707 184.48C91.5307 183.48 90.4907 182.73 90.1707 181.48C90.7007 181.2 91.1107 181.48 91.4807 181.8C93.4422 183.303 95.5574 184.593 97.7907 185.65C99.4507 186.43 100.031 188.17 100.671 189.77C101.923 193.251 102.73 196.877 103.071 200.56C102.999 201.454 103.129 202.353 103.451 203.19C103.521 204.19 103.451 205.27 103.451 206.31C103.499 207.208 103.435 208.108 103.261 208.99C103.623 206.771 103.582 204.505 103.141 202.3C103.052 201.745 103.019 201.182 103.041 200.62C103.023 199.645 102.909 198.673 102.701 197.72C102.001 194.42 101.381 191.09 101.001 187.72C100.97 186.809 100.652 185.931 100.091 185.213C99.5309 184.494 98.7569 183.971 97.8807 183.72C93.0496 181.756 88.9571 178.325 86.1807 173.91C85.5567 172.917 85.0468 171.857 84.6607 170.75C84.3407 170 84.2507 169.17 83.9907 168.4C83.7307 167.63 83.9907 166.81 83.5407 166.09C83.3807 160.09 87.4607 157.01 91.8007 154.09C93.1007 153.22 94.8007 153.09 95.9607 152C97.8489 150.978 100.037 150.652 102.141 151.08C105.873 151.578 109.663 151.443 113.351 150.68C113.746 150.565 114.166 150.565 114.561 150.68C115.281 151.68 114.361 152.16 113.981 152.83C113.601 153.5 113.031 153.93 112.721 154.46C114.051 153.12 114.921 151.09 117.181 150.67C117.227 152.117 117.154 153.565 116.961 155C116.608 156.177 115.912 157.222 114.961 158C115.121 158.14 115.191 157.89 115.331 157.93C115.574 157.929 115.812 157.993 116.022 158.117C116.231 158.24 116.404 158.417 116.521 158.63C117.171 160.38 117.401 162.25 118.271 163.93C118.984 165.48 120.183 166.755 121.686 167.562C123.189 168.369 124.915 168.663 126.601 168.4C129.311 168.1 131.731 165.56 132.531 162.23C132.629 161.205 132.857 160.197 133.211 159.23C134.041 158.4 134.871 158.67 135.721 159.23C136.088 159.482 136.399 159.807 136.634 160.186C136.868 160.565 137.02 160.989 137.081 161.43C137.735 165.067 138.169 168.741 138.381 172.43C137.821 176.12 135.991 179.34 134.381 182.61C130.801 189.97 126.521 196.9 120.521 202.61C117.051 205.9 113.291 208.83 108.711 210.49C108.218 210.649 107.768 210.92 107.398 211.283C107.029 211.646 106.749 212.09 106.581 212.58C105.021 216.76 105.191 220.82 107.981 224.38C114.055 232.318 122.99 237.568 132.881 239.01C134.658 239.215 136.453 239.215 138.231 239.01C140.351 238.88 140.701 239.33 140.661 241.51C140.389 243.063 139.862 244.56 139.101 245.94C138.341 247.3 137.501 248.8 135.741 248.42C133.981 248.04 134.011 246.24 133.991 244.64C132.891 246.55 132.911 248.64 132.441 250.69C132.001 252.27 132.021 253.83 133.601 254.69C135.181 255.55 136.651 254.84 137.931 253.69C139.651 252.2 140.291 250.19 140.811 248.08C141.031 247.18 140.921 246.08 141.951 245.54C142.951 245.54 143.491 246.4 144.131 246.97C145.825 248.551 147.834 249.756 150.025 250.507C152.217 251.259 154.543 251.539 156.851 251.33C159.391 251.15 161.971 250.57 163.461 248.44C166.021 244.77 169.731 243.19 173.701 241.92C176.485 241.099 179.028 239.613 181.111 237.59C184.821 233.91 185.411 230.4 182.811 225.88C182.265 225.171 181.92 224.328 181.811 223.44C181.941 222.17 182.741 221.16 183.191 220.01C183.821 218.36 184.331 218.28 185.581 219.61C186.877 221.12 187.985 222.782 188.881 224.56C186.791 220.66 184.381 216.96 182.071 213.19C180.631 210.84 178.301 209.41 175.891 208.19C175.102 207.934 174.406 207.45 173.891 206.8C171.491 203.86 169.051 200.96 166.721 197.97C162.861 192.97 159.151 187.91 157.191 181.84C155.741 177.39 155.351 172.91 158.191 168.75C160.771 165 164.501 163.37 168.911 163.02C170.311 163.93 170.841 165.5 171.711 166.79C175.261 172.06 182.051 171.23 185.371 167.23C186.837 165.382 187.696 163.126 187.831 160.77C187.78 159.868 188.03 158.975 188.541 158.23C188.69 158.084 188.877 157.984 189.081 157.94C190.297 158.039 191.47 158.441 192.491 159.11C192.739 159.263 192.977 159.433 193.201 159.62C194.281 160.62 195.711 160.81 197.031 161.26C197.365 161.439 197.635 161.719 197.801 162.06C197.931 162.46 198.031 162.86 198.161 163.24C198.161 163.07 198.081 162.95 198.081 162.8C198.008 162.614 197.979 162.413 197.996 162.214C198.013 162.014 198.077 161.821 198.181 161.65C198.352 161.479 198.557 161.344 198.782 161.255C199.007 161.166 199.248 161.123 199.491 161.13C205.831 160.72 211.661 158.36 217.621 156.47C220.831 155.47 223.971 154.19 227.431 154.3C230.431 154.4 231.591 155.44 231.591 158.44C231.614 162.76 229.957 166.919 226.971 170.04C226.817 170.111 226.681 170.213 226.57 170.341C226.46 170.469 226.378 170.619 226.331 170.781C226.283 170.943 226.271 171.114 226.296 171.281C226.32 171.448 226.379 171.608 226.471 171.75C226.84 172.485 226.983 173.314 226.881 174.13C226.351 177.76 224.271 180.2 221.111 181.93C214.826 185.205 208.144 187.652 201.231 189.21C200.831 189.31 200.411 189.33 200.021 189.46C199.311 189.71 199.401 190.14 199.881 190.51C200.531 191 201.341 191.28 201.971 191.82C204.821 192.49 207.571 191.53 210.361 191.35C210.771 191.35 211.171 191.18 211.581 191.13C212.581 191.02 213.771 190.27 214.511 191.13C215.251 191.99 214.351 192.97 214.031 193.85C212.031 199.27 212.281 204.8 213.211 210.37C213.271 210.77 213.361 211.18 213.401 211.59C213.647 216.763 214.316 221.907 215.401 226.97C216.631 232.84 215.611 238.67 214.661 244.45C213.481 251.68 211.561 258.76 210.101 265.93C209.908 266.668 209.774 267.421 209.701 268.18C209.521 272.59 207.021 275.11 202.991 276.33C199.991 277.24 197.051 278.11 194.701 280.33C194.23 280.697 193.679 280.946 193.092 281.055C192.506 281.165 191.902 281.132 191.331 280.96C187.051 280.13 183.331 281.65 180.021 283.96C173.571 288.5 166.211 289.73 158.701 290.51C154.169 291.005 149.605 291.156 145.051 290.96C136.501 290.52 127.951 289.96 119.681 287.49C117.651 287.044 115.759 286.11 114.171 284.77C113.946 284.351 113.879 283.865 113.981 283.4C114.541 279.12 113.791 277.76 109.861 275.97C107.155 274.689 104.111 274.304 101.171 274.87C99.4307 275.21 97.8807 275.22 96.9407 273.38C92.4107 268.24 91.6707 262.38 93.6107 255.99C95.1772 250.911 97.2231 245.992 99.7207 241.3C100.111 240.48 100.631 239.74 101.071 238.95C101.071 238.77 101.361 238.67 101.311 238.44C101.267 238.564 101.206 238.682 101.131 238.79C100.701 239.53 100.271 240.25 99.8307 240.97C97.5369 245.32 95.5325 249.816 93.8307 254.43C93.6371 255.234 93.188 255.953 92.5507 256.48C92.2807 256.52 92.0507 256.38 92.2307 255.96Z" fill="#F3A575"/>
<path d="M137.991 172.82C137.541 169.05 137.081 165.29 136.651 161.52C136.589 161.12 136.448 160.737 136.235 160.394C136.022 160.05 135.742 159.753 135.411 159.52C135.961 158.67 137.691 159.28 137.651 158.21C137.601 156.98 136.041 157.82 135.321 157.27C135.151 157.164 135.002 157.029 134.881 156.87C134.641 155.2 133.581 153.87 133.011 152.34C132.521 148.45 131.141 145.02 127.891 142.57C127.771 141.7 128.471 141.37 129.031 141.07C130.931 139.883 132.94 138.878 135.031 138.07C135.433 137.869 135.872 137.75 136.321 137.72C135.785 137.759 135.261 137.891 134.771 138.11C127.521 140.82 121.041 144.7 115.901 150.6C115.581 150.95 115.261 151.35 114.691 151.18C111.621 151.35 108.631 152.26 105.501 152.02C103.604 151.754 101.695 151.584 99.7807 151.51C98.4707 151.51 97.3207 152.51 95.9807 152C89.4707 142.35 86.2407 131.59 85.2207 120.08C85.4007 118.41 85.2207 116.74 85.2207 115.08L85.3007 112.33C85.5607 110.66 85.5307 108.95 86.6207 107.47C88.7507 104.57 91.1907 104.55 93.3607 107.47C93.6124 107.879 93.8235 108.311 93.9907 108.76C95.6507 111.1 97.3174 113.434 98.9907 115.76C98.9907 118.17 97.8107 120.32 97.5407 122.69C97.0359 125.73 96.825 128.81 96.9107 131.89L100.591 127.08C102.361 126 103.531 124.2 105.351 123.15C106.315 122.507 107.413 122.09 108.561 121.93C108.801 121.93 108.511 121.45 108.561 121.73C108.561 121.83 108.511 121.85 108.401 121.86C107.981 121.86 107.531 121.98 107.641 121.3C107.863 121.081 108.127 120.909 108.418 120.794C108.708 120.678 109.018 120.623 109.331 120.63C113.581 120.22 117.831 119.68 122.021 121.08C123.681 121.64 124.251 121.17 124.361 119.36C124.361 118.88 124.291 118.36 124.641 117.98C127.598 118.99 130.319 120.589 132.641 122.68C132.971 123 133.461 123.92 134.281 123.24C135.331 123.24 135.571 124.24 135.951 124.89C140.179 132.508 142.489 141.04 142.681 149.75C142.825 156.582 141.811 163.388 139.681 169.88C139.361 171 139.271 172.31 137.991 172.82Z" fill="#E88A55"/>
<path d="M102.671 200.51C101.961 197.39 101.671 194.18 100.601 191.13C99.6508 188.38 98.4808 186.03 95.4108 185.02C93.4108 184.36 91.9108 182.67 90.1708 181.46C87.7585 178.705 85.9072 175.505 84.7208 172.04C84.5808 171.59 84.3108 171.15 84.5508 170.65L84.7508 170.71C85.3808 170.9 85.4508 171.52 85.7008 171.98C88.5029 177.347 93.2116 181.47 98.9008 183.54C99.6802 183.758 100.365 184.229 100.846 184.879C101.328 185.529 101.58 186.321 101.561 187.13C101.901 190.61 102.561 194.05 103.111 197.51C103.297 198.292 103.355 199.1 103.281 199.9C103.286 200.101 103.256 200.3 103.191 200.49C103.123 200.559 103.031 200.599 102.935 200.603C102.838 200.607 102.744 200.574 102.671 200.51Z" fill="#99411F"/>
<path d="M198.431 28.8702C195.712 29.6446 192.937 30.2063 190.131 30.5502C190.031 30.4602 190.001 30.3702 190.031 30.2902C190.061 30.2102 190.101 30.1602 190.131 30.1602C192.267 29.3821 194.469 28.7997 196.711 28.4202H198.421C198.561 28.5102 198.601 28.6002 198.561 28.6902C198.521 28.7802 198.471 28.8702 198.431 28.8702Z" fill="#E99160"/>
<path d="M190.131 30.1602V30.5502C187.731 31.5502 185.421 32.8602 182.681 32.6402C185.097 31.6242 187.588 30.7951 190.131 30.1602Z" fill="#E99668"/>
<path d="M85.2306 115.09C85.5742 115.879 85.7514 116.73 85.7514 117.59C85.7514 118.45 85.5742 119.302 85.2306 120.09C84.7955 118.452 84.7955 116.728 85.2306 115.09Z" fill="#E58349"/>
<path d="M47.4105 268.02C47.5405 268.02 47.7305 268.02 47.7905 268.15C48.1305 268.65 47.6305 268.49 47.4705 268.49C45.5405 268.49 43.5905 268.72 41.7305 267.92C41.9305 267.53 42.3205 267.73 42.6205 267.65L47.4105 268.02Z" fill="#545555"/>
<path d="M84.7508 170.71C84.7151 170.715 84.6788 170.712 84.6442 170.702C84.6097 170.692 84.5779 170.674 84.5508 170.65C83.8608 170.33 84.0208 169.65 83.9408 169.11C83.9408 168.74 83.5108 168.19 84.3608 168.24C84.4208 169.08 84.9708 169.83 84.7508 170.71Z" fill="#AD6343"/>
<path d="M84.3608 168.24L83.9408 169.11C83.5334 168.166 83.4078 167.124 83.5802 166.11C84.2202 166.67 83.9908 167.56 84.3608 168.24Z" fill="#C47E60"/>
<path d="M114.29 284.66C120.71 287.91 127.65 288.96 134.71 289.66C140.657 290.356 146.647 290.604 152.63 290.4C159.96 290.05 167.28 289.4 174.23 286.71C177.33 285.5 179.76 283.1 182.84 281.85C185.45 280.78 188 279.71 190.98 280.44C191.846 280.669 192.76 280.645 193.612 280.37C194.465 280.096 195.221 279.582 195.79 278.89C197.47 277.1 200.02 276.72 202.29 275.99C206.89 274.51 208.58 273.08 209.29 267.83C210.11 262 211.78 256.3 212.99 250.53C214.31 244.14 215.54 237.74 215.4 231.17C215.33 227.29 213.94 223.63 213.61 219.8C213.217 217.087 212.994 214.351 212.94 211.61C213.07 208.47 212.57 205.35 213.14 202.19C213.578 199.46 214.285 196.781 215.25 194.19C215.73 192.751 216.514 191.433 217.549 190.325C218.585 189.217 219.847 188.346 221.25 187.77C224.15 186.62 226.2 184.29 228.17 181.99C230.63 179.13 230.62 177.18 228.61 173.99C227.87 172.81 226.38 171.99 226.61 170.32C226.97 168.72 228.37 167.77 229.09 166.32C230.482 163.788 231.195 160.939 231.16 158.05C231.09 155.5 230.27 154.86 227.73 154.8C225.533 154.782 223.349 155.137 221.27 155.85C215.38 157.81 209.59 159.99 203.59 161.31C201.86 161.68 200.05 161.31 198.4 162.03C198.311 162.067 198.212 162.075 198.119 162.051C198.025 162.028 197.942 161.975 197.88 161.9C196.35 158.67 194.97 155.38 192.71 152.51C189.13 147.95 184.49 144.8 179.51 142.06C175.71 139.98 171.6 138.45 168.21 136.06C167.88 135.69 167.84 136.19 167.97 135.94C167.97 135.94 168.05 135.94 168.15 136.03C168.254 136.12 168.347 136.221 168.43 136.33C168.82 136.95 169.78 137.46 169.38 138.24C168.98 139.02 168.01 138.36 167.3 138.43C167.165 138.45 167.031 138.48 166.9 138.52C166.54 138.65 166.15 138.43 165.76 138.65C166.373 138.565 166.991 138.519 167.61 138.51C168.47 139.02 169.84 138.2 170.37 139.58C166.81 143.87 166.85 148.85 167.6 153.97C167.099 155.486 166.105 156.79 164.777 157.676C163.448 158.562 161.862 158.979 160.27 158.86C159.939 158.808 159.602 158.808 159.27 158.86C158.58 159.05 157.85 159.34 158.01 160.21C158.17 161.08 158.92 161 159.54 160.95C161.606 160.668 163.536 159.761 165.07 158.35C165.9 157.7 166.74 156.97 167.77 158.05C168.49 159.69 169.44 161.28 169.06 163.2C166.65 163.98 164.15 164.45 161.97 165.89C160.205 167.074 158.799 168.721 157.906 170.651C157.014 172.58 156.669 174.718 156.91 176.83C157.48 184.32 161.72 190.03 165.85 195.76C168.279 199.189 170.953 202.438 173.85 205.48C174.038 205.634 174.19 205.825 174.297 206.043C174.404 206.26 174.463 206.498 174.47 206.74C173.77 207.39 173.17 206.79 172.53 206.58C172.105 206.354 171.655 206.176 171.19 206.05C170.672 205.829 170.122 205.69 169.56 205.64C169.17 205.523 168.786 205.386 168.41 205.23C168.14 205.15 168.41 205.67 168.36 205.4C168.379 205.371 168.407 205.349 168.44 205.338C168.472 205.327 168.508 205.328 168.54 205.34C168.881 205.428 169.215 205.538 169.54 205.67C170.019 205.691 170.49 205.799 170.93 205.99C171.396 206.115 171.848 206.286 172.28 206.5C175.393 207.495 178.008 209.641 179.59 212.5C181.59 216.31 181.01 219.93 178.77 223.43C177.389 225.642 175.576 227.553 173.44 229.05C176.454 227.944 179.161 226.137 181.34 223.78C181.59 223.48 181.88 223.14 182.34 223.3C182.8 225.3 184.39 226.81 184.92 228.87C185.212 229.966 185.264 231.111 185.07 232.228C184.877 233.345 184.444 234.407 183.8 235.34C181.848 238.451 178.886 240.795 175.41 241.98C173.59 242.61 171.77 243.24 169.99 243.98C168.04 244.671 166.35 245.945 165.15 247.63C163.15 250.58 160.15 251.74 156.7 251.94C150.77 252.29 146.09 249.83 142.1 245.69C141.1 243.58 141.51 241.37 141.8 239.22C141.95 238.09 143.11 237.76 143.64 237.55C138.407 238.549 132.997 238.043 128.04 236.09C126.344 235.503 124.701 234.77 123.13 233.9C122.39 233.46 121.46 233.15 121.36 232.07C122.31 231.43 123.05 232.32 123.89 232.45C131.07 233.71 138.464 232.685 145.03 229.52C148.38 227.91 151.64 226.1 154.95 224.38C155.573 223.936 156.326 223.714 157.09 223.75C157.146 223.951 157.13 224.166 157.046 224.357C156.963 224.548 156.816 224.704 156.63 224.8C154.08 226.53 151.92 228.75 149.38 230.49C149.18 230.64 148.94 230.74 148.84 231C149.04 230.66 149.42 230.54 149.72 230.33C150.46 229.82 151.12 229.22 151.83 228.67C153.065 227.674 154.627 227.175 156.21 227.27C160.689 227.536 165.167 226.742 169.28 224.95C170.449 224.499 171.482 223.755 172.28 222.79C172.93 221.94 172.76 221.23 171.78 220.79C170.712 220.299 169.523 220.132 168.36 220.31C167.36 220.49 166.36 220.78 165.36 220.02C167.74 218.19 170.73 218.08 173.41 217.12C173.766 217.018 174.126 216.934 174.49 216.87C171.83 214.53 170.17 211.33 166.07 211.64C163.78 211.81 162.29 213.2 160.73 214.49C157.86 216.85 156.73 216.74 154.65 213.66C152.22 209.99 151.49 205.78 150.86 201.56C149.708 194.082 149.283 186.51 149.59 178.95C150.03 168.32 151.03 157.74 153.71 147.4C155.095 141.712 157.327 136.265 160.33 131.24C161.27 129.71 163.14 128.96 163.66 127.12C167.04 128.42 169.94 126.85 172.89 125.58C174.96 124.68 176.7 123.07 179 122.65C181.045 122.488 183.102 122.562 185.13 122.87C189.68 123.31 193.42 125.47 196.8 128.37C198.73 129.37 199.96 131.16 201.73 132.37C205.27 134.71 207.87 133.46 208.25 129.21C208.283 128.94 208.337 128.672 208.41 128.41C209.222 125.919 209.309 123.249 208.66 120.71C208.485 120.332 208.411 119.914 208.446 119.499C208.481 119.083 208.624 118.684 208.86 118.34C211.2 115.61 211.78 112.21 212.6 108.89C213.024 107.351 213.116 105.738 212.87 104.16C212.731 103.873 212.66 103.559 212.66 103.24C212.709 103.029 212.825 102.84 212.99 102.7C219.332 96.8872 225.004 90.3835 229.9 83.3102C234.344 77.2325 237.498 70.3109 239.17 62.9702C241.3 52.6902 239.31 43.4102 231.62 35.8002C230.95 35.1302 230.21 34.5202 229.5 33.8802C231.96 32.5103 234.76 32.9303 237.35 32.7603C243.86 32.3503 250.44 32.2903 256.86 33.8303C263.08 35.3203 268.6 38.0902 272.43 43.4702C274.01 45.9677 275.159 48.7125 275.83 51.5903C275.876 51.7227 275.893 51.8633 275.881 52.0029C275.869 52.1424 275.827 52.2779 275.76 52.4005C275.692 52.5231 275.599 52.63 275.487 52.7144C275.375 52.7987 275.247 52.8587 275.11 52.8903C270.7 54.8903 267.85 58.4202 265.61 62.4802C261.503 70.0542 258.793 78.3059 257.61 86.8402C256.865 91.807 256.454 96.8183 256.38 101.84C256.43 105.217 256.89 108.575 257.75 111.84C259.29 118.51 257.52 124.59 254.56 130.48C252.16 135.26 248.69 139.35 245.79 144.13C247.93 142.13 249.25 144.91 251.08 144.75C251.29 144.75 251.69 145.14 251.77 145.41C252.11 146.67 252.98 146.51 253.89 146.29C254.427 146.119 254.887 145.765 255.19 145.29C262.36 136.47 270.55 128.87 280.94 123.94C287.375 120.812 294.436 119.188 301.59 119.19C305.59 119.19 309.43 120.11 312.49 122.95C316.76 126.95 316.85 132.01 315.9 137.17C314.54 144.57 310.75 150.85 305.9 156.45C296.581 167.125 285.587 176.214 273.35 183.36C272.17 184.06 270.72 184.23 269.71 185.25C269.6 185.69 269.22 185.57 268.93 185.63C267.975 185.789 267.093 186.243 266.41 186.93C265.32 187.5 264.71 187.93 265.41 189.53C267.83 195.4 266.68 199.63 261.94 203.71L258.94 204.71C256.76 205.59 255.02 204.45 253.28 203.44C252.396 202.915 251.652 202.184 251.11 201.31C250.32 196.76 249.76 192.2 250.31 188.24C248.07 192.24 248.05 197.24 248.57 202.24C249.16 207.86 249.94 213.48 249.57 219.14C249.02 228.5 246.39 237.14 240.71 244.75C240.48 245.05 240.45 245.49 240.07 245.69C240.44 245.55 240.49 245.18 240.65 244.88C245.86 237.88 250.47 230.55 251.55 221.57C251.64 220.82 251.48 219.48 253.03 219.68C254.044 221.565 254.284 223.771 253.7 225.83C254.37 233.61 251.7 240.61 248.54 247.45C243.04 259.51 236.1 270.78 229.12 282.03C227.53 284.6 226.12 287.32 224.12 289.61C221.03 292.83 216.98 294.54 213.05 296.33C204.699 300.194 195.783 302.696 186.64 303.74C183.356 304.18 180.044 304.391 176.73 304.37C175.661 304.419 174.589 304.362 173.53 304.2C170.46 303.9 167.4 303.59 164.36 303.12C163.62 303 162.82 303.12 162.3 302.43C162.95 301.09 164.2 301.56 165.18 301.59C172.706 301.77 180.221 300.929 187.52 299.09C199.143 296.185 209.944 290.649 219.09 282.91C219.35 282.69 219.64 282.5 219.91 282.28C220.839 281.546 221.711 280.744 222.52 279.88C222.66 279.68 222.8 280.01 222.61 279.82C222.42 279.63 222.48 280 222.34 280.01C221.624 280.789 220.848 281.511 220.02 282.17C206.63 293.1 191.02 298.41 174.08 300.17C164.589 301.29 154.967 300.352 145.87 297.42C145.04 297.14 143.64 296.94 143.8 296.05C144 294.95 145.38 295.26 146.3 295.34C153.939 295.932 161.614 295.858 169.24 295.12C172.027 294.978 174.737 294.157 177.135 292.73C179.533 291.303 181.546 289.312 183 286.93C178.13 292.13 172.18 294.21 165.48 294.31C158.78 294.41 152.21 294.56 145.6 294.26C138.075 294.087 130.588 293.132 123.26 291.41C120.554 290.808 118.014 289.616 115.82 287.92C114.8 287.12 113.88 286.18 114.29 284.66Z" fill="#E88A55"/>
<path d="M341.59 261.89C338.414 268.072 334.878 274.062 331 279.83L330.62 280.41C328.87 280.13 327.14 279.81 325.4 279.5C316.396 277.753 307.517 275.415 298.82 272.5L294.69 271.15C294.06 270.94 293.44 270.75 292.81 270.58C287.09 269.02 281.23 269.01 275.61 271.78C273.81 272.68 271.85 273.5 270.8 275.45C270.66 275.71 270.42 275.86 270.15 275.55C270.277 275.25 270.407 274.96 270.54 274.68C272.87 269.44 275.46 264.32 277.64 259C279.5 254.49 280.91 249.83 282.64 245.27C291.791 249.075 301.137 252.39 310.64 255.2C318.404 257.489 326.285 259.355 334.25 260.79C334.378 260.838 334.499 260.901 334.61 260.98C334.572 261.062 334.509 261.13 334.43 261.175C334.351 261.219 334.261 261.239 334.17 261.23C334.357 261.282 334.552 261.297 334.744 261.273C334.937 261.249 335.122 261.187 335.29 261.09C337.32 261.37 339.44 261.65 341.59 261.89Z" fill="#48484A"/>
<path d="M269.72 185.25C271.47 183.44 273.84 182.61 275.89 181.25C287.46 173.73 298.14 165.19 306.89 154.41C311.14 149.14 314.39 143.28 315.53 136.53C316.39 131.53 316.12 126.53 311.74 122.89C308.939 120.693 305.449 119.559 301.89 119.69C291.61 119.657 281.582 122.866 273.23 128.86C265.934 133.979 259.5 140.227 254.17 147.37C253.99 147.556 253.793 147.723 253.58 147.87C253.29 147.12 253.94 146.7 253.95 146.17C260.803 133.17 272.398 123.307 286.33 118.63C291.162 117.002 296.232 116.191 301.33 116.23C305.48 116.158 309.574 117.194 313.19 119.23C315.71 120.17 316.97 122.23 317.85 124.56C318.15 124.77 318.03 125.17 318.24 125.42C318.62 127.19 319.38 128.89 319.14 130.76C318.781 131.707 318.781 132.753 319.14 133.7C318.96 139.92 316.39 145.32 313.14 150.41C306.59 160.68 297.59 168.31 287.88 175.25C282.22 179.31 276.4 183.05 269.72 185.25Z" fill="#99411F"/>
<path d="M266.42 186.93C266.606 186.441 266.966 186.037 267.431 185.797C267.896 185.557 268.434 185.497 268.94 185.63C268.242 186.295 267.367 186.746 266.42 186.93Z" fill="#C87146"/>
<path d="M319.07 133.77C318.723 133.359 318.533 132.838 318.533 132.3C318.533 131.762 318.723 131.241 319.07 130.83C319.314 131.795 319.314 132.805 319.07 133.77Z" fill="#90330D"/>
<path d="M335.201 261.07C334.987 261.267 334.72 261.395 334.433 261.437C334.146 261.48 333.852 261.436 333.591 261.31C333.831 260.85 334.281 261.12 334.591 260.95L335.201 261.07Z" fill="#3D3D3E"/>
<path d="M241.94 303.74C241 301.99 240.04 300.25 239.14 298.48C238.95 298.11 238.44 297.61 239.02 297.22C239.41 296.97 239.781 297.34 240.111 297.6L245.26 301.67C244.312 302.587 243.181 303.292 241.94 303.74Z" fill="#48484A"/>
<path d="M220.35 282.11C216.609 285.855 212.353 289.047 207.71 291.59C197.728 297.21 186.676 300.672 175.27 301.75C170.93 302.19 166.61 301.93 162.27 302.11C161.59 302.77 160.74 302.59 159.93 302.6C159.12 302.61 158.14 302.23 157.23 302.12C155.62 301.6 153.73 302.03 152.37 300.69C147.35 299.62 142.463 297.997 137.8 295.85C135.91 294.99 133.8 295.13 131.8 294.85C128.42 294.371 125.065 293.72 121.75 292.9L119.31 291.79C117.95 290.91 116.47 290.35 115.36 288.97C114.685 288.246 114.215 287.354 113.999 286.387C113.782 285.42 113.828 284.413 114.13 283.47C114.19 283.86 114.26 284.25 114.32 284.64C114.76 287.07 116.73 288.09 118.61 289.06C122.92 291.27 127.66 291.86 132.37 292.53C143.27 294.07 154.24 293.88 165.21 293.76C172.21 293.68 178.31 291.42 183.08 286.1C183.38 285.77 183.61 285.29 184.43 285.28C183.454 287.652 181.939 289.763 180.005 291.448C178.072 293.134 175.773 294.346 173.29 294.99C169.61 296.09 165.78 296.06 162.02 296.16C156.082 296.447 150.132 296.383 144.2 295.97C146.981 297.321 149.947 298.251 153 298.73C169.88 301.88 186 299.08 201.69 292.56C208.001 289.963 213.926 286.514 219.3 282.31C219.643 282.086 220.009 281.898 220.39 281.75C220.51 281.84 220.55 281.93 220.5 282.01C220.45 282.09 220.4 282.11 220.35 282.11Z" fill="#99411E"/>
<path d="M92.6704 256.46C94.4677 250.979 96.8797 245.719 99.8604 240.78C100.22 240.71 100.43 240.78 100.23 241.19C98.3305 245.7 96.3705 250.19 94.6905 254.78C92.2505 261.49 93.2205 267.63 97.0605 273.47C93.9124 270.888 91.9078 267.17 91.4805 263.12C91.4206 262.298 91.4206 261.472 91.4805 260.65C91.8805 259.85 91.6105 258.89 92.0905 258.1C92.0719 257.5 92.2788 256.915 92.6704 256.46Z" fill="#98411E"/>
<path d="M42.5908 291.31C42.9308 291.14 42.9708 290.82 43.0108 290.5C43.6193 291.793 43.8081 293.244 43.5508 294.65L42.5908 291.31Z" fill="#6A6C6E"/>
<path d="M92.2404 258.13C92.1651 259.015 91.9026 259.874 91.4704 260.65C91.5504 259.8 91.2404 258.9 91.7904 258.11C91.9504 257.93 92.1004 257.93 92.2404 258.13Z" fill="#CA8C6A"/>
<path d="M92.2404 258.13L91.7903 258.13C91.7443 257.387 91.8961 256.645 92.2303 255.98C92.3803 256.15 92.5302 256.31 92.6702 256.48C92.5302 257.02 92.3904 257.57 92.2404 258.13Z" fill="#E1986D"/>
<path d="M198.431 28.8702C198.431 28.7302 198.431 28.6002 198.431 28.4602C200.781 28.9102 203.071 28.1701 205.341 27.9101C210.641 27.3001 215.871 27.2601 220.931 28.9101C223.885 29.9367 226.647 31.451 229.101 33.3902C225.254 34.1022 221.332 34.3206 217.431 34.0401C210.741 33.5101 204.591 31.3102 198.431 28.8702Z" fill="#D69F72"/>
<path d="M173.59 303.7L176.85 303.77C180.38 304.26 182.28 306.92 184.33 309.39C188.9 315.5 191.8 322.47 194.49 329.53C194.962 330.595 195.349 331.695 195.65 332.82C195.87 333.82 196.48 334.64 196.33 335.67C196.345 335.935 196.274 336.197 196.128 336.418C195.982 336.64 195.769 336.809 195.52 336.9C193.203 331.232 190.579 325.694 187.66 320.31C187.18 319.48 186.66 318.69 186.12 317.88C184.368 314.606 182.076 311.651 179.34 309.14C176.57 306.7 173.6 306.67 170.53 307.99C166.629 309.731 163.116 312.237 160.2 315.36C158.346 316.779 156.695 318.444 155.291 320.31C153.376 321.81 151.735 323.631 150.441 325.69C150.551 324.58 150.67 323.47 150.78 322.36C152.01 319.81 154.11 317.95 155.93 315.88C158.84 313.04 161.57 310.02 164.93 307.63C166.307 306.598 167.769 305.685 169.3 304.9C170.6 304.129 172.08 303.716 173.59 303.7Z" fill="#529795"/>
<path d="M156.16 316.22L150.78 322.36C151.2 315.367 151.617 308.384 152.03 301.41C152.104 301.151 152.222 300.908 152.38 300.69L157.38 301.69C157.572 301.89 157.717 302.13 157.805 302.393C157.894 302.656 157.923 302.935 157.89 303.21C157.46 307.21 157.1 311.21 156.51 315.21C156.48 315.6 156.24 315.89 156.16 316.22Z" fill="#8DB6A8"/>
<path d="M251.481 201.25C252.418 202.293 253.559 203.134 254.834 203.72C256.108 204.306 257.488 204.626 258.891 204.66C259.091 204.844 259.309 205.008 259.541 205.15C264.991 207.57 264.601 209 264.121 214.55C263.561 220.84 264.181 226.77 268.381 231.88C271.318 235.397 275.284 237.905 279.721 239.05C281.601 239.58 281.591 240.37 281.161 241.89C278.988 249.437 276.254 256.811 272.981 263.95C269.111 272.55 264.751 280.95 260.041 289.1C259.601 289.87 259.041 290.57 258.521 291.3C255.606 294.577 252.332 297.516 248.761 300.06C248.472 300.357 248.095 300.554 247.687 300.62C247.278 300.687 246.859 300.62 246.491 300.43C244.671 299.08 242.881 297.71 241.041 296.43C240.372 295.949 239.651 295.547 238.891 295.23C238.593 295.052 238.243 294.983 237.901 295.034C237.558 295.085 237.243 295.254 237.011 295.51C236.511 296.09 236.781 296.64 237.011 297.24C237.941 299.9 239.611 302.24 240.361 304.97C236.312 307.413 232.035 309.456 227.591 311.07C222.768 312.994 217.781 314.477 212.691 315.5C212.261 315.58 211.901 315.72 211.601 315.29C215.411 309.14 219.151 302.95 223.041 296.85C231.851 283.01 240.671 269.17 248.041 254.48C251.251 248.08 254.251 241.56 255.351 234.35C256.151 228.203 256.151 221.978 255.351 215.83C255.181 214.19 255.581 212.4 254.461 210.88C255.301 215.22 254.141 219.52 254.311 223.88C254.311 224.54 254.721 225.46 253.671 225.82C253.578 223.702 253.243 221.602 252.671 219.56C252.271 219.18 251.971 218.708 251.797 218.185C251.623 217.662 251.579 217.104 251.671 216.56C251.719 212.294 251.462 208.03 250.901 203.8C250.782 203.36 250.772 202.897 250.873 202.453C250.974 202.008 251.183 201.595 251.481 201.25Z" fill="#48484A"/>
<path d="M246.491 300.43C248.601 300.16 249.91 298.56 251.42 297.34C253.83 295.39 256.16 293.34 258.52 291.34C256.82 295.5 254.24 299.13 251.77 302.84C251.693 303.015 251.573 303.168 251.422 303.284C251.271 303.401 251.093 303.478 250.904 303.509C250.715 303.54 250.522 303.523 250.342 303.461C250.161 303.398 249.999 303.291 249.87 303.15L246.491 300.43Z" fill="#57595A"/>
<path d="M183.871 309.56C182.098 307.038 179.681 305.038 176.871 303.77C189.249 303.625 201.464 300.925 212.751 295.84C216.659 293.96 220.461 291.867 224.141 289.57C223.481 291.94 221.841 293.77 220.611 295.81C213.961 306.92 207.221 317.97 200.501 329.04C199.151 331.27 197.741 333.46 196.351 335.67L195.231 333.08C197.611 327.96 200.451 323.08 202.951 318.08C204.011 315.93 203.951 315.9 201.731 315.39C195.632 313.925 189.659 311.976 183.871 309.56Z" fill="#8CB6A8"/>
<path d="M121.27 232.06C124.77 234.453 128.724 236.101 132.887 236.901C137.05 237.701 141.333 237.636 145.47 236.71C145.47 236.83 145.47 237.04 145.47 237.05C142.11 237.98 141.69 240.46 142.08 243.41C142.14 244.166 142.14 244.925 142.08 245.68C141.7 247.21 141.36 248.74 140.92 250.25C140.465 251.996 139.424 253.532 137.97 254.6C136.5 255.6 134.85 256.31 133.22 255.1C132.544 254.61 132.066 253.893 131.874 253.08C131.681 252.267 131.786 251.412 132.17 250.67C132.55 250.53 132.8 250.77 133.07 250.98C134.98 252.5 136.07 252.43 137.44 250.42C139.27 247.77 139.85 244.66 140.44 241.55C140.85 239.77 140.14 239.4 138.38 239.48C125.43 240.12 115.59 234.12 107.67 224.48C104.48 220.61 104.67 216.05 106.57 211.55C106.665 211.255 106.824 210.985 107.037 210.76C107.25 210.535 107.511 210.36 107.8 210.25C115.65 207.44 121.35 201.9 126.23 195.42C131.338 188.539 135.342 180.904 138.1 172.79C144.46 156.08 143.63 139.79 135.02 124.06C134.83 123.774 134.612 123.506 134.37 123.26C134.19 122.89 134.02 122.52 133.84 122.16C133.66 121.8 133.9 121.63 134.27 121.71C139.72 128.08 142.21 135.71 143.38 143.79C145.69 159.79 141.52 174.42 133.84 188.29C129.35 196.39 124 203.79 116.45 209.36C115.004 210.419 113.487 211.378 111.91 212.23C109.31 213.65 108.36 215.58 108.74 218.57C109.12 221.56 111.02 223.72 113.03 225.7C115.413 228.254 118.197 230.402 121.27 232.06Z" fill="#99411F"/>
<path d="M103.051 114.08C104.027 109.535 106.017 105.269 108.871 101.6C112.481 96.8902 117.101 93.1202 120.811 88.5102C123.191 85.5102 124.871 82.1302 127.091 79.0602C133.32 70.39 140.701 62.6085 149.031 55.9302C157.151 49.4357 166.021 43.9397 175.451 39.5602C178.99 37.7688 182.725 36.393 186.581 35.4602L177.931 40.1402C168.81 45.1111 160.227 51.0125 152.321 57.7502C143.81 64.8581 136.358 73.1451 130.191 82.3602C128.415 84.8212 126.91 87.4665 125.701 90.2502C124.596 92.9701 122.518 95.1807 119.871 96.4502C113.323 100.187 107.969 105.703 104.431 112.36C104.111 112.94 104.051 113.71 103.051 114.08Z" fill="#FABF95"/>
<path d="M144.53 165.31C143.871 171.101 142.869 176.848 141.53 182.52C140.136 189.03 138.336 195.446 136.14 201.73C134.583 206.512 132.357 211.05 129.53 215.21C126.11 220 116.66 220.65 112.7 216.36C111.83 215.41 111.08 214.43 112.99 213.78C119.47 211.57 124.17 207.01 128.1 201.72C136.43 190.48 141.33 177.72 144.1 164.07C145.15 164.15 144.67 164.77 144.53 165.31Z" fill="#FABF95"/>
<path d="M178.94 122.98C176.11 124.14 173.68 126.09 170.77 127.06C169.35 127.53 167.91 127.93 166.46 128.3C165.923 128.42 165.362 128.371 164.853 128.16C164.345 127.949 163.914 127.586 163.62 127.12C163.36 124.07 165.2 122.12 167.3 120.39C172.36 116.33 180.65 116.08 185.99 119.66C186.99 120.61 186.07 121.04 185.42 121.19C183.22 121.67 181.17 122.65 178.94 122.98Z" fill="#E07A3D"/>
<path d="M124.591 118.03C124.755 118.479 124.883 118.94 124.971 119.41C125.095 119.807 125.107 120.231 125.007 120.635C124.906 121.039 124.696 121.407 124.401 121.7C124.039 121.962 123.61 122.113 123.165 122.136C122.719 122.159 122.277 122.053 121.891 121.83C117.151 120.15 112.371 120.66 107.601 121.73C107.489 121.837 107.346 121.905 107.192 121.923C107.039 121.941 106.884 121.908 106.751 121.83C106.321 121.22 106.591 120.68 106.911 120.13C107.506 119.503 108.159 118.934 108.861 118.43C111.206 117.041 113.763 116.044 116.431 115.48C119.741 114.7 122.511 115.21 124.591 118.03Z" fill="#DF7A3D"/>
<path d="M165.271 220.03C167.271 220.14 169.211 219.29 171.211 219.97C172.071 220.26 173.051 220.47 173.321 221.42C173.591 222.37 172.801 223.1 172.141 223.67C169.371 226.07 165.961 226.88 162.481 227.45C160.04 227.9 157.547 227.991 155.081 227.72C154.247 227.713 153.439 228.012 152.811 228.56C151.701 229.24 150.611 229.95 149.511 230.66C149.47 230.663 149.429 230.658 149.39 230.644C149.352 230.631 149.316 230.611 149.285 230.584C149.255 230.557 149.23 230.524 149.212 230.487C149.194 230.451 149.183 230.411 149.181 230.37C151.481 227.8 154.391 225.94 157.001 223.74C159.64 222.257 162.408 221.015 165.271 220.03Z" fill="#99411F"/>
<path d="M178.94 122.98C180.728 121.968 182.671 121.259 184.69 120.88C185.31 120.76 186.44 121 185.99 119.66C187.93 120.05 189.39 121.35 190.93 122.43C192.671 123.715 194.34 125.094 195.93 126.56C196.44 127 197.31 127.4 196.74 128.37C194.89 127.37 193.01 126.44 191.21 125.37C187.59 123.31 183.69 122.94 179.59 123.31C179.41 123.31 179.17 123.1 178.94 122.98Z" fill="#E99860"/>
<path d="M212.88 103.1L212.95 103.84C213.24 105.531 213.24 107.259 212.95 108.95C212.33 112.47 211.72 116 209.08 118.72C208.44 119.39 209.08 120.01 209.2 120.64C209.623 121.913 209.768 123.262 209.625 124.595C209.482 125.929 209.054 127.216 208.37 128.37C208.63 125.06 208.1 121.97 205.87 119.37C205.34 118.76 205.66 118.42 206.17 118.06C211.02 114.61 212.51 109.65 212.47 104.01C212.34 103.57 212.09 103.1 212.88 103.1Z" fill="#9A421F"/>
<path d="M108.891 118.43C108.497 119.121 107.923 119.691 107.231 120.08C107.001 120.61 106.181 120.99 106.811 121.74H108.811C106.427 122.875 104.258 124.414 102.401 126.29C101.913 126.791 101.258 127.094 100.561 127.14C102.791 124.25 104.621 121.01 107.751 118.9C108.069 118.623 108.469 118.458 108.891 118.43Z" fill="#EA9860"/>
<path d="M144.53 165.31C144.53 164.86 144.611 164.37 144.121 164.07C144.124 163.067 144.349 162.076 144.781 161.17C144.811 162.53 145.35 163.94 144.53 165.31Z" fill="#FAB485"/>
<path d="M134.16 121.74L133.73 122.19C132.85 121.74 132.73 120.73 132.23 120.01C133.066 120.327 133.754 120.944 134.16 121.74Z" fill="#AB582E"/>
<path d="M212.88 103.1L212.47 104C212.119 103.274 212.007 102.454 212.15 101.66C212.74 101.86 212.73 102.34 212.95 102.66C212.93 102.81 212.91 102.96 212.88 103.1Z" fill="#A35026"/>
<path d="M160.301 266.39C163.941 267.24 167.581 267.64 171.301 266.5C174.021 265.66 176.801 264.99 179.831 264.16L175.591 261.44C175.531 261.05 175.591 260.81 176.081 260.98C180.081 261.48 183.311 263.54 186.271 266.1C187.955 267.636 189.776 269.015 191.711 270.22C191.801 270.59 191.711 270.79 191.291 270.63C189.119 269.935 187.072 268.895 185.231 267.55C184.438 267.002 183.534 266.635 182.584 266.475C181.634 266.314 180.66 266.364 179.731 266.62C178.306 266.865 176.901 267.219 175.531 267.68C169.171 270.25 162.851 269.58 156.531 267.68C153.091 266.68 149.601 265.87 146.161 264.86C145.136 264.564 144.062 264.476 143.002 264.602C141.942 264.727 140.919 265.063 139.991 265.59C139.191 266 138.431 266.48 137.641 266.9C133.641 269.03 131.911 268.57 129.821 264.58C129.586 264.046 129.192 263.597 128.693 263.295C128.193 262.992 127.613 262.851 127.031 262.89C126.353 262.851 125.674 262.943 125.031 263.16C122.088 264.324 119.011 265.114 115.871 265.51C115.518 265.698 115.125 265.796 114.726 265.796C114.326 265.796 113.933 265.698 113.581 265.51C112.631 264.98 111.581 265.23 110.581 265.03C107.421 264.4 107.421 264.41 108.041 267.33C105.921 266.33 105.131 265.2 105.141 263C105.137 261.557 105.557 260.145 106.348 258.938C107.139 257.732 108.266 256.783 109.591 256.21C109.111 257.28 108.661 258.37 108.141 259.43C107.341 261.09 107.621 262.17 109.621 262.43C110.091 262.49 110.561 262.58 111.031 262.65C113.569 262.846 116.123 262.695 118.621 262.2C121.311 262.2 123.711 260.96 126.221 260.3C126.827 260.1 127.472 260.05 128.102 260.157C128.731 260.263 129.324 260.522 129.831 260.91C130.728 261.558 131.529 262.329 132.211 263.2C133.841 265.2 134.911 265.39 137.261 264.29C137.691 264.08 138.131 263.87 138.551 263.64C139.651 262.983 140.873 262.555 142.143 262.383C143.413 262.211 144.705 262.299 145.941 262.64C150.661 264.05 155.591 264.67 160.301 266.39Z" fill="#99411F"/>
<path d="M160.301 266.39C156.082 265.852 151.918 264.942 147.86 263.67C146.143 263.079 144.319 262.868 142.512 263.053C140.706 263.238 138.962 263.813 137.4 264.74C134.74 266.32 133.56 265.9 131.62 263.41C129.48 260.65 128.06 260.27 124.37 261.32C122.54 261.85 120.84 262.94 118.81 262.67C118.75 262.46 118.7 262.22 118.81 262.07C120.92 259.67 122.66 256.92 125.25 254.97C127.16 253.53 128.95 253.97 130.42 256.06C130.87 256.58 131.29 257.13 131.78 257.6C134.55 260.26 135.26 260.3 138.24 257.97C139.203 257.19 140.249 256.519 141.36 255.97C141.782 255.721 142.267 255.6 142.756 255.619C143.246 255.639 143.719 255.799 144.12 256.08C149.25 259.96 154.981 262.85 160.301 266.39Z" fill="#CD7A54"/>
<path d="M168.991 163.2L167.351 158.15C168.211 157.55 169.091 157.93 169.941 158.15C175.509 159.646 181.373 159.646 186.941 158.15C187.591 157.98 188.281 157.69 188.941 158.22C188.331 160.8 188.211 163.44 187.031 165.97C184.441 171.51 175.891 172.85 172.161 168.03C170.931 166.54 170.021 164.83 168.991 163.2Z" fill="#E1947C"/>
<path d="M226.59 170.31C227.59 171.64 228.59 172.97 229.49 174.31C230.314 175.346 230.745 176.64 230.706 177.964C230.668 179.287 230.163 180.553 229.28 181.54C227.048 184.707 224.01 187.22 220.48 188.82C218.765 189.562 217.389 190.917 216.62 192.62C214.01 197.71 213.32 203.19 213.29 208.81C213.29 209.74 213.68 210.74 212.96 211.59C211.54 204.73 211.3 197.97 214.69 191.09C212.057 191.713 209.384 192.157 206.69 192.42C205.056 192.607 203.408 192.624 201.77 192.47C201.77 192.47 201.67 192.39 201.68 192.34C201.69 192.276 201.714 192.214 201.75 192.16C202.34 191.33 203.29 191.33 204.14 191.16C210.94 189.48 217.54 187.39 222.93 182.61L223.85 181.79C226.25 179.69 227.43 177.17 226.67 173.94C226.67 172.5 225.67 171.35 225.45 169.94C225.98 169.8 226.23 170.23 226.59 170.31Z" fill="#99411F"/>
<path d="M188.881 158.25C181.691 160.61 174.521 160.25 167.351 158.15C166.461 157.37 166.001 158.22 165.461 158.66C163.881 160.11 161.933 161.099 159.831 161.52C158.651 161.69 157.171 161.7 157.111 160.13C157.105 159.829 157.171 159.53 157.305 159.259C157.438 158.989 157.635 158.755 157.878 158.576C158.121 158.398 158.404 158.28 158.702 158.234C159 158.188 159.305 158.214 159.591 158.31C163.761 159.65 165.201 156.31 167.321 154.1C167.295 153.79 167.348 153.479 167.476 153.196C167.604 152.912 167.801 152.666 168.051 152.48C171.321 149.32 174.841 146.61 179.621 146.26C182.465 146.185 185.262 146.999 187.621 148.59C187.808 148.679 187.985 148.786 188.151 148.91C189.151 150.01 190.051 151.18 190.971 152.35C192.049 153.83 192.765 155.543 193.061 157.35C193.079 157.556 193.034 157.763 192.93 157.942C192.826 158.122 192.669 158.264 192.481 158.35C191.481 157.56 190.371 158.05 189.301 158.2C189.159 158.172 189.012 158.19 188.881 158.25Z" fill="#99401E"/>
<path d="M133.351 159.53C133.533 161.133 133.281 162.756 132.622 164.229C131.962 165.701 130.919 166.969 129.601 167.9C126.471 170.26 120.751 169 118.541 165.43C117.233 163.403 116.479 161.069 116.351 158.66C117.221 158.26 117.971 158.78 118.711 159.05C123.091 160.69 127.481 161.23 131.981 159.52C132.19 159.403 132.427 159.343 132.667 159.345C132.907 159.346 133.143 159.41 133.351 159.53Z" fill="#E1937C"/>
<path d="M127.93 142.43C132.02 144.52 133.02 148.29 133.35 152.43C133.53 153.23 134.11 153.95 133.88 154.84C133.04 155.3 132.61 154.6 132.11 154.19C127.72 150.56 124.04 150.46 119.36 153.82C118.63 154.34 118.08 155.38 116.9 154.97C116.51 153.554 116.601 152.048 117.16 150.69C117.123 150.416 117.165 150.137 117.28 149.886C117.395 149.635 117.579 149.421 117.81 149.27C120.57 146.766 123.564 144.532 126.75 142.6C126.918 142.477 127.113 142.396 127.319 142.367C127.525 142.337 127.735 142.359 127.93 142.43Z" fill="#E1937C"/>
<path d="M226.64 173.94C227.92 176.44 227.46 178.6 225.64 180.7C220.64 186.32 214.1 188.95 207.16 190.95C205.39 191.46 203.56 191.79 201.76 192.2C201.16 191.33 199.94 191.57 199.3 190.78C199 190.42 198.48 190.15 198.64 189.58C198.8 189.01 199.3 188.99 199.79 188.9C207.502 187.473 214.932 184.805 221.79 181C224.59 179.39 225.86 176.87 226.64 173.94Z" fill="#E78A54"/>
<path d="M172.321 206.31L174.321 206.76L176.131 207.76C179.369 209.337 182.04 211.877 183.781 215.03C185.611 218.38 187.781 221.53 189.221 225.12C187.451 223.12 186.221 220.79 184.051 218.85C183.714 220.454 183.087 221.982 182.201 223.36C179.572 226.663 175.903 228.978 171.791 229.93C173.891 228 176.151 226.28 177.791 223.88C181.901 217.76 180.391 211.39 173.921 207.79C173.26 207.42 172.581 207.08 171.921 206.73C171.831 206.31 171.891 206.11 172.321 206.31Z" fill="#9A411F"/>
<path d="M160.281 272.64C156.221 275.35 151.881 276.64 147.001 275.34C145.201 274.85 143.37 274.48 141.611 273.9C136.351 272.15 131.251 273.68 126.111 274.56C121.431 275.37 118.011 273 116.791 267.51C120.451 273.1 125.171 272.73 130.191 271.51C135.211 270.29 140.191 270.93 145.021 272.51C149.701 274.01 154.411 274.81 159.121 272.59C159.313 272.517 159.519 272.49 159.723 272.509C159.928 272.528 160.125 272.593 160.301 272.7L160.281 272.64Z" fill="#9A4120"/>
<path d="M116.9 154.96C118.75 153.67 120.44 152.1 122.66 151.38C124.262 150.811 125.99 150.696 127.653 151.049C129.316 151.402 130.848 152.209 132.08 153.38C132.65 153.88 133.18 154.38 133.73 154.94C134.075 155.062 134.375 155.286 134.589 155.583C134.804 155.879 134.923 156.234 134.93 156.6C135.6 157.11 136.38 156.84 137.11 156.92C137.84 157 138.59 157.05 138.64 157.92C138.69 158.79 138.04 159.28 137.24 159.41C136.633 159.48 136.021 159.5 135.41 159.47C134.72 159.03 134.03 158.79 133.35 159.47C127.53 162.27 121.9 161.14 116.35 158.6C116.193 158.435 115.998 158.309 115.783 158.235C115.567 158.16 115.336 158.138 115.11 158.17C115.079 158.212 115.038 158.245 114.991 158.268C114.944 158.292 114.893 158.304 114.84 158.304C114.788 158.304 114.737 158.292 114.69 158.268C114.643 158.245 114.602 158.212 114.57 158.17L116.9 154.96Z" fill="#99411F"/>
<path d="M188.08 149.11H187.7C182.86 145.53 177.37 143.11 171.99 140.59C171.38 140.3 170.67 140.15 170.26 139.53C169.41 138.77 168.18 139.48 167.32 138.77C167.17 138.59 166.9 138.52 166.83 138.26C167.54 137.58 168.39 138.31 169.22 138.06L166.69 134.9C172.93 139.1 180.3 141.08 186.24 145.66C191.79 149.93 196.14 155.01 198.04 161.9C198.24 162.33 198.04 162.4 197.65 162.34L197.14 161.55C196.14 160.94 195.84 159.83 195.3 158.89C193.919 156.611 192.406 154.414 190.77 152.31C190.01 151.12 188.86 150.31 188.08 149.11Z" fill="#99401D"/>
<path d="M140.331 241.55C140.437 244.643 139.66 247.703 138.091 250.37C136.091 253.43 134.331 253.49 132.091 250.67C132.361 246.99 132.751 245.67 134.461 242.91C134.931 243.91 134.461 244.85 134.561 245.73C134.661 246.61 134.771 247.83 135.881 248.05C136.368 248.1 136.859 247.99 137.279 247.737C137.698 247.485 138.026 247.104 138.211 246.65C139.179 245.071 139.894 243.35 140.331 241.55Z" fill="#E78A54"/>
<path d="M127.93 142.43C123.988 144.69 120.366 147.468 117.16 150.69C115.16 152.06 113.75 154.15 111.61 155.46L114.71 151.19C119.682 145.192 126.222 140.692 133.6 138.19C134.05 138.04 134.52 137.95 134.98 137.84C135.44 137.73 135.49 137.84 135.36 138.23C132.755 139.39 130.267 140.796 127.93 142.43Z" fill="#99411E"/>
<path d="M130.44 256.06C127.3 253.92 126.17 254.11 123.67 257.06C122.08 258.95 120.43 260.79 118.81 262.66C116.255 263.415 113.536 263.415 110.98 262.66C112.57 261.74 114.34 262.56 115.98 262.11C117.202 261.859 118.278 261.141 118.98 260.11C120.557 257.853 122.382 255.78 124.42 253.93C126.49 251.93 127.17 251.85 129.5 253.51C130.792 254.446 131.841 255.677 132.56 257.1C131.59 256.88 131.25 255.95 130.44 256.06Z" fill="#FABE93"/>
<path d="M145.971 278.37C140.796 277.258 135.426 277.443 130.341 278.91C135.151 275.63 142.111 275.31 145.971 278.37Z" fill="#98411E"/>
<path d="M190.94 152.02C193.525 154.828 195.621 158.049 197.14 161.55C195.59 161.45 194.14 161.2 193.02 159.9C193.018 159.465 192.933 159.034 192.77 158.63C192.7 158.2 192.98 157.75 192.65 157.35C192.19 155.618 191.468 153.966 190.51 152.45C190.37 152.04 190.59 151.94 190.94 152.02Z" fill="#E78A54"/>
<path d="M119.19 267.92C123.28 269.74 127.13 269.42 130.93 269.77C125.95 271.53 121.59 270.99 119.19 267.92Z" fill="#FBBF94"/>
<path d="M189.25 158.17C190.25 157.92 191.25 155.99 192.25 158.17C192.54 158.379 192.74 158.69 192.81 159.04C192.793 159.216 192.707 159.378 192.57 159.49L189.25 158.17Z" fill="#E48956"/>
<path d="M103.59 202.08C104.162 204.556 104.016 207.144 103.17 209.54V206.31C103.66 204.91 102.84 203.42 103.59 202.08Z" fill="#A8562C"/>
<path d="M113.59 265.55H115.88C116.59 265.72 117.36 265.37 118.23 265.93H112.23C112.59 265.39 113.12 265.7 113.59 265.55Z" fill="#F6A777"/>
<path d="M103.59 202.08C103.28 203.46 103.91 204.93 103.17 206.27C103.17 205.21 103.1 204.15 103.07 203.1C102.79 202.26 102.79 201.351 103.07 200.51C103.2 200.32 103.32 200.32 103.44 200.51L103.59 202.08Z" fill="#923E16"/>
<path d="M100.23 241.19L99.8604 240.78L101.05 238.69C101.42 238.58 101.61 238.64 101.43 239.07L100.23 241.19Z" fill="#AB582E"/>
<path d="M101.43 239.07L101.05 238.69L102.051 237.11C102.141 237.462 102.131 237.833 102.022 238.179C101.912 238.526 101.707 238.834 101.43 239.07Z" fill="#CA794C"/>
<path d="M103.451 200.51H103.081V197.51C103.471 198.459 103.599 199.495 103.451 200.51Z" fill="#9A431E"/>
<path d="M103.081 200.51C103.081 201.37 103.08 202.23 103.08 203.1C102.735 202.283 102.608 201.391 102.71 200.51H103.081Z" fill="#9A431E"/>
<path d="M190.121 226.21C190.701 226.93 191.121 227.32 190.801 227.95C190.281 227.64 190.171 227.18 190.121 226.21Z" fill="#D18352"/>
<path d="M160.3 272.66C160.3 271.78 160.94 271.6 161.78 271.47C161.51 272.3 160.781 272.36 160.281 272.64L160.3 272.66Z" fill="#A65228"/>
<path d="M176.111 260.98L175.621 261.44C175.241 261.31 174.851 261.21 174.621 260.77C174.858 260.637 175.132 260.585 175.401 260.623C175.67 260.661 175.92 260.787 176.111 260.98Z" fill="#A55328"/>
<path d="M114.59 158.22H115.13L114.13 159.43C114.08 159.321 114.053 159.202 114.049 159.082C114.045 158.962 114.065 158.842 114.108 158.729C114.15 158.617 114.215 158.514 114.298 158.426C114.381 158.339 114.48 158.269 114.59 158.22Z" fill="#BA683D"/>
<path d="M192.591 159.47V159.03C192.721 158.86 192.771 158.62 193.041 158.6C193.491 159.06 193.541 159.5 192.981 159.9L192.591 159.47Z" fill="#CB703F"/>
<path d="M191.32 270.63L191.74 270.22L192.85 270.74C192.632 270.927 192.349 271.021 192.063 271C191.776 270.979 191.509 270.846 191.32 270.63Z" fill="#B36137"/>
<path d="M198.501 163.12C198.661 163.293 198.772 163.506 198.823 163.736C198.874 163.966 198.863 164.206 198.791 164.43C198.181 164.43 198.241 163.91 198.101 163.54C198.211 163.38 198.221 163.13 198.501 163.12Z" fill="#BC6C3F"/>
<path d="M198.501 163.12L198.101 163.54L197.65 162.34L198.04 161.9C198.15 161.9 198.25 161.99 198.36 162.02C198.41 162.39 198.451 162.76 198.501 163.12Z" fill="#A25027"/>
<path d="M110.151 158.17C110.011 157.95 109.841 157.79 109.871 157.68C109.901 157.57 110.091 157.41 110.221 157.28C110.311 157.41 110.491 157.54 110.481 157.66C110.471 157.78 110.311 157.94 110.151 158.17Z" fill="#E59766"/>
<path d="M134.931 156.62C134.311 156.23 134.101 155.54 133.731 154.96C133.601 154.11 133.481 153.27 133.351 152.42C134.001 153.77 135.521 154.8 134.931 156.62Z" fill="#F39F6F"/>
<path d="M135.36 138.31L134.98 137.92C135.32 137.49 135.76 137.51 136.4 137.58C136.299 137.777 136.151 137.946 135.97 138.073C135.789 138.2 135.58 138.282 135.36 138.31Z" fill="#BE6135"/>
<path d="M225.751 248.71C225.961 245.78 225.751 242.89 225.751 240.02C225.901 235.66 224.911 231.43 224.361 227.15C223.581 221.15 221.631 215.39 221.581 209.31C221.581 201.89 224.881 196.6 231.461 193.31C233.806 192.003 236.262 190.905 238.801 190.03C239.731 189.75 240.191 189.53 239.951 190.92C239.171 195.3 238.521 199.71 237.891 204.11C237.767 205.413 237.724 206.722 237.761 208.03C237.621 215.24 237.551 222.48 235.651 229.49C233.796 235.758 230.873 241.658 227.011 246.93C226.591 247.53 226.181 248.11 225.751 248.71Z" fill="#E89967"/>
<path d="M265.591 164.05C266.276 154.914 269.593 146.172 275.141 138.88C279.941 132.53 285.781 127.52 293.291 124.66C295.606 123.743 298.082 123.304 300.571 123.37C305.401 123.53 308.451 126.87 308.091 131.96C305.021 128.07 300.911 129.3 296.841 129.43C302.321 132.63 301.841 137.79 301.571 142.86C301.531 142.922 301.476 142.973 301.412 143.008C301.347 143.044 301.274 143.062 301.201 143.062C301.127 143.062 301.055 143.044 300.99 143.008C300.925 142.973 300.871 142.922 300.831 142.86C300.521 139.07 299.531 135.57 296.501 132.95C294.221 130.95 292.071 130.64 289.401 132.01C281.82 135.899 275.746 142.195 272.131 149.91C271.977 151.133 271.604 152.319 271.031 153.41C269.7 156.635 268.695 159.985 268.031 163.41C267.771 164.64 267.901 165.33 269.391 165.46C270.047 165.456 270.694 165.624 271.265 165.947C271.837 166.27 272.315 166.736 272.651 167.3C273.051 167.77 273.451 168.23 273.841 168.7C274.655 169.54 275.211 170.597 275.441 171.744C275.672 172.891 275.567 174.081 275.141 175.17C274.201 177.56 272.141 178.36 269.761 178.56C269.151 178.65 268.421 179.22 268.101 178.14C268.561 178 269.021 177.88 269.471 177.72C273.641 176.21 274.471 172.41 271.211 169.39C269.301 167.61 268.321 167.7 266.021 169.88C265.241 167.99 266.211 165.96 265.591 164.05Z" fill="#99411F"/>
<path d="M251.481 201.25C251.887 207.337 252.304 213.43 252.73 219.53C252.06 219.91 252.2 220.64 252.13 221.2C251.01 230.52 246.52 238.2 240.67 245.27C240.644 245.309 240.608 245.341 240.566 245.364C240.524 245.386 240.478 245.397 240.43 245.397C240.383 245.397 240.336 245.386 240.295 245.364C240.253 245.341 240.217 245.309 240.19 245.27C243.46 239.65 246.42 233.92 247.83 227.49C249.205 220.511 249.387 213.35 248.37 206.31C247.82 201.73 247.24 197.14 248.13 192.52C248.533 190.611 249.334 188.809 250.48 187.23C250.568 191.918 250.902 196.598 251.481 201.25Z" fill="#99411F"/>
<path d="M272.64 167.31C271.26 166.56 269.93 165.69 268.24 165.95C266.88 166.17 267.15 165.12 267.24 164.47C268.072 159.383 269.72 154.463 272.12 149.9C273.12 150.4 273.24 149.38 273.67 149.01C276.05 146.95 278.52 147.64 279.26 150.68C280.34 155.09 278.97 159.04 276.77 162.83C277.03 161.5 277.36 160.18 277.53 158.83C277.62 158.12 277.84 157.13 276.98 156.83C276.12 156.53 275.65 157.4 275.25 157.98C273.411 160.734 272.497 164.002 272.64 167.31Z" fill="#CD6C3D"/>
<path d="M170.26 139.53C176.42 142.09 182.72 144.4 187.7 149.11C185.97 148.49 184.49 147.34 182.61 147C177.15 146 173.07 148.56 169.3 152C168.59 152.65 167.96 153.38 167.3 154.08C165.76 149.41 166.65 144.98 168.67 140.68C168.803 140.36 169.021 140.083 169.302 139.88C169.583 139.677 169.915 139.556 170.26 139.53Z" fill="#E1937C"/>
<path d="M214.21 268.01C214.793 270.553 214.769 273.198 214.14 275.73C213.82 277.13 212.69 277.81 211.48 278.39C208.38 279.88 204.88 280.39 201.95 282.26L198.84 284.26C198.45 284.35 198.32 284.21 198.46 283.84C201.611 280.739 205.311 278.25 209.37 276.5C210.334 276.084 211.145 275.38 211.692 274.485C212.24 273.59 212.498 272.547 212.43 271.5C212.438 265.926 212.893 260.361 213.79 254.86C214.52 254.8 214.42 255.18 214.2 255.63L214.15 264.76C213.921 267.551 213.868 270.353 213.99 273.15C214.07 271.74 213.72 269.87 214.21 268.01Z" fill="#9A411E"/>
<path d="M173.59 303.7L169.4 305.38C166.88 304.73 164.4 304.02 161.84 303.43C161.08 303.24 159.98 303.31 159.91 302.06L162.28 302.11L171.4 303.34C172.13 303.44 172.92 303.18 173.59 303.7Z" fill="#91B5A6"/>
<path d="M214.21 268.01L214.211 273.86C214.011 270.86 213.211 267.78 214.151 264.78L214.21 268.01Z" fill="#953C17"/>
<path d="M265.591 164.05C266.381 165.95 265.741 167.95 265.991 169.89C265.881 170.24 266.101 170.75 265.291 170.89C265.411 168.58 265.511 166.31 265.591 164.05Z" fill="#953C16"/>
<path d="M268.091 178.15C268.531 178.75 269.191 178.44 269.751 178.57C268.561 179.29 267.281 178.81 265.641 178.96C266.329 178.397 267.202 178.108 268.091 178.15Z" fill="#B65C2F"/>
<path d="M212.95 108.95V103.84C213.526 105.495 213.526 107.295 212.95 108.95Z" fill="#9D451F"/>
<path d="M300.851 142.85H301.591C301.707 143.84 301.442 144.838 300.851 145.64V142.85Z" fill="#B75C31"/>
<path d="M220.35 282.11C220.35 281.98 220.351 281.86 220.351 281.73C220.868 280.896 221.574 280.194 222.411 279.68C222.43 279.642 222.459 279.611 222.495 279.588C222.532 279.566 222.573 279.554 222.616 279.554C222.658 279.554 222.7 279.566 222.736 279.588C222.772 279.611 222.801 279.642 222.821 279.68C222.202 280.675 221.355 281.508 220.35 282.11Z" fill="#AF5427"/>
<path d="M214.2 255.65C214.06 255.39 213.93 255.13 213.79 254.88C213.79 254.2 213.73 253.52 214.5 253.07C214.59 253.99 214.86 254.87 214.2 255.65Z" fill="#CF733F"/>
<path d="M149.181 230.37L149.511 230.66L147.75 232.21C147.789 231.799 147.944 231.408 148.198 231.082C148.451 230.756 148.792 230.509 149.181 230.37Z" fill="#B15626"/>
<path d="M166.83 138.31L167.33 138.82L164.65 138.96C165.3 138.1 166.11 138.36 166.83 138.31Z" fill="#923912"/>
<path d="M169.411 205.89L167.311 205.28C168.311 205.05 168.901 204.87 169.411 205.45C169.551 205.55 169.601 205.65 169.551 205.74C169.501 205.83 169.461 205.89 169.411 205.89Z" fill="#D37742"/>
<path d="M198.461 283.86L198.841 284.28C198.581 284.62 198.281 285.28 197.841 284.81C197.401 284.34 198.071 284.07 198.461 283.86Z" fill="#CF733D"/>
<path d="M172.321 206.31L171.921 206.7L170.671 206.3C170.571 205.93 170.671 205.72 171.091 205.89C171.314 205.854 171.544 205.873 171.758 205.946C171.973 206.02 172.166 206.144 172.321 206.31Z" fill="#B5592B"/>
<path d="M222.86 279.69H222.45C222.646 279.243 223.003 278.886 223.45 278.69C223.69 279.31 223.27 279.48 222.86 279.69Z" fill="#C86C39"/>
<path d="M240.191 245.31H240.671L239.731 246.53C239.401 245.76 239.821 245.53 240.191 245.31Z" fill="#AC4F25"/>
<path d="M238.301 248.6C238.051 248.23 237.921 248.09 237.951 248.06C238.081 247.838 238.258 247.646 238.471 247.5C238.681 247.4 238.851 247.55 238.731 247.82C238.611 248.09 238.471 248.31 238.301 248.6Z" fill="#C96B3B"/>
<path d="M171.09 205.87L170.67 206.28L169.411 205.89L169.41 205.46C169.98 205.52 170.59 205.31 171.09 205.87Z" fill="#C06537"/>
<path d="M159.91 302.06C162.11 303.39 164.76 303.24 167.07 304.18C167.86 304.51 169.07 304.11 169.4 305.38C164.19 308.03 160.27 312.24 156.16 316.22C155.94 312.35 156.88 308.58 157.16 304.75C157.24 303.75 157.35 302.75 157.4 301.75L159.91 302.06Z" fill="#CBE6D3"/>
<path d="M183.871 309.56C185.741 309.28 187.291 310.32 188.871 310.91C193.413 312.664 198.097 314.029 202.871 314.99C204.221 315.23 204.711 315.68 203.871 317.15C201.201 322.15 198.661 327.15 196.071 332.15C195.861 332.56 195.741 333.15 195.071 333.04C192.311 324.82 189.051 316.73 183.871 309.56Z" fill="#CBE6D3"/>
<path d="M106.811 121.74C106.381 122.18 106.03 122.12 106.16 121.49C106.2 121.182 106.32 120.89 106.508 120.643C106.695 120.395 106.945 120.201 107.231 120.08L106.811 121.74Z" fill="#E88A55"/>
<path d="M156.9 226.31C160.6 224.61 164.12 222.53 168.31 222.47C168.88 222.47 169.76 222.14 169.96 222.84C170.16 223.54 169.16 223.95 168.64 224.16C166.3 225.11 163.93 226.16 161.36 226.16C159.86 226.16 158.43 226.89 156.9 226.31Z" fill="#AF5A31"/>
<path d="M190.16 154.89C191.45 155.89 190.62 156.23 189.66 156.6C183.85 158.83 177.96 158.68 172.02 157.21C171.286 157.033 170.561 156.816 169.85 156.56C168.59 156.1 168.85 155.5 169.75 154.87C170.95 154.28 171.85 153.2 173.16 152.76C173.83 152.53 174.48 152.01 175.24 152.53C175.486 152.711 175.67 152.962 175.77 153.25C175.788 153.448 175.746 153.646 175.65 153.82C175.148 154.32 174.617 154.791 174.06 155.23C174.986 155.196 175.908 155.099 176.82 154.94C177.016 154.95 177.211 154.98 177.4 155.03C181.15 156.21 182.72 155.72 184.79 152.69C184.968 152.437 185.231 152.256 185.53 152.18C187.346 152.506 188.987 153.466 190.16 154.89Z" fill="#CAE4D2"/>
<path d="M178.521 149.52H182.221C182.416 149.6 182.591 149.724 182.732 149.882C182.872 150.04 182.974 150.228 183.03 150.432C183.086 150.636 183.095 150.85 183.055 151.058C183.015 151.266 182.928 151.461 182.801 151.63C181.801 152.4 180.581 151.99 179.501 152.34C179.057 152.45 178.594 152.45 178.151 152.34C177.987 152.286 177.837 152.199 177.71 152.084C177.582 151.968 177.48 151.827 177.411 151.67C177.051 150.59 177.741 150.03 178.521 149.52Z" fill="#2F2D2D"/>
<path d="M182.641 151.57C182.75 150.875 182.6 150.163 182.221 149.57C183.641 149.4 184.771 150.18 185.971 150.73C185.971 151.35 186.151 151.99 185.491 152.4L185.111 152.85C184.211 152.85 183.491 152.2 182.621 152.1C182.554 152.027 182.519 151.93 182.523 151.831C182.527 151.732 182.569 151.639 182.641 151.57Z" fill="#7D4533"/>
<path d="M185.49 152.36C185.59 151.79 185.31 151.1 185.97 150.69C187.57 151.9 189.27 152.98 190.16 154.89L185.49 152.36Z" fill="#9BBCAC"/>
<path d="M175.191 152.81C173.851 152.67 172.821 153.43 171.761 154.04C171.185 154.498 170.492 154.786 169.761 154.87C170.971 153.19 172.831 152.3 174.431 151.09C175.221 151.09 175.331 151.7 175.431 152.3C175.413 152.493 175.328 152.673 175.191 152.81Z" fill="#9BBEAD"/>
<path d="M175.24 152.4C174.88 152.01 175.03 151.32 174.42 151.09L178.521 149.52C178.121 150.16 177.52 150.73 177.68 151.59C177.416 151.971 177.036 152.256 176.596 152.402C176.156 152.548 175.68 152.548 175.24 152.4Z" fill="#7A4633"/>
<path d="M190.94 152.02L190.51 152.45C189.67 151.36 188.41 150.57 188.08 149.11C189.191 149.912 190.158 150.896 190.94 152.02Z" fill="#D5794C"/>
<path d="M193.08 158.6L192.63 159.03C192.52 158.74 192.4 158.44 192.28 158.15C192.4 157.89 192.531 157.62 192.65 157.35C193.07 157.68 193.02 158.16 193.08 158.6Z" fill="#B25629"/>
<path d="M131.671 157.84C131.621 158.03 131.601 158.38 131.511 158.4C128.821 158.92 126.251 160.27 123.391 159.51C123.461 159.4 123.551 159.24 123.661 159.25C125.031 159.4 124.171 158.76 123.981 158.35C124.361 156.94 123.071 156.44 122.461 155.57C122.461 155.48 122.411 155.38 122.391 155.29C122.392 155.101 122.463 154.919 122.591 154.78C122.977 154.633 123.391 154.57 123.803 154.598C124.216 154.626 124.618 154.742 124.981 154.94C125.121 155.053 125.245 155.184 125.351 155.33C125.652 155.866 126.077 156.322 126.591 156.66C127.651 157.18 128.341 156.38 129.131 155.96C129.318 155.899 129.514 155.872 129.711 155.88C130.671 156.23 131.591 156.61 131.671 157.84Z" fill="#91503E"/>
<path d="M124.121 158.31L125.231 159.31L123.391 159.42C120.944 159.112 118.557 158.437 116.311 157.42C116.682 156.779 117.271 156.293 117.971 156.05C118.821 155.79 119.521 155.21 120.361 154.95C121.201 154.69 121.931 154.18 122.521 155.23H122.611C122.665 155.31 122.694 155.404 122.694 155.5C122.694 155.597 122.665 155.691 122.611 155.77C122.271 156.2 121.691 156.31 121.171 156.77C121.812 157.267 122.599 157.537 123.411 157.54C123.821 157.68 124.121 157.88 124.121 158.31Z" fill="#CBE3D0"/>
<path d="M129.59 156.13L129.23 156.18C128 156.58 126.99 155.49 125.8 155.68C125.518 155.655 125.255 155.527 125.06 155.32C124.37 154.22 125.18 153.77 125.94 153.32C127.24 153.2 128.37 153.82 129.57 154.16C129.803 154.435 129.933 154.782 129.936 155.142C129.94 155.501 129.818 155.851 129.59 156.13Z" fill="#362E2D"/>
<path d="M129.59 156.13C129.59 155.45 129.591 154.78 129.541 154.13L132.541 156.48C132.391 157.007 132.092 157.479 131.681 157.84L129.59 156.13Z" fill="#7E4632"/>
<path d="M125.91 153.31C125.48 153.93 124.91 154.48 125.03 155.31C124.3 154.8 123.4 155.31 122.64 154.9C122.25 154.69 121.86 154.49 121.73 154.01C123.05 153.31 124.59 153.89 125.91 153.31Z" fill="#824632"/>
<path d="M121.731 154C122.381 153.95 122.601 154.33 122.641 154.89L122.521 155.32C120.841 154.69 119.521 156.23 117.971 156.14C119.081 155.201 120.356 154.476 121.731 154Z" fill="#9EBFAE"/>
<path d="M131.67 157.82C131.74 157.23 131.81 156.64 132.53 156.46C133.19 157.51 132.9 157.97 131.67 157.82Z" fill="#9FBEAE"/>
<path d="M182.691 152C183.841 151.24 184.441 152.13 185.111 152.81C183.771 156.09 180.731 157.07 177.261 155.34C176.991 154.47 177.631 153.89 177.961 153.22C178.105 153.084 178.28 152.984 178.471 152.93C178.757 152.866 179.054 152.866 179.341 152.93C180.731 153.6 181.591 152.31 182.691 152Z" fill="#92503F"/>
<path d="M176.921 155.31C175.777 155.719 174.547 155.826 173.351 155.62C173.542 155.151 173.837 154.731 174.215 154.393C174.593 154.055 175.043 153.808 175.531 153.67C176.421 153.86 176.981 154.31 176.921 155.31Z" fill="#F9FBF8"/>
<path d="M176.921 155.31L175.591 153.67C175.601 153.54 175.601 153.41 175.591 153.28C176.441 152.46 177.281 151.77 178.161 153.28C178.311 154.15 177.701 154.72 177.301 155.38C177.18 155.332 177.051 155.309 176.921 155.31Z" fill="#A16A58"/>
<path d="M178.12 153.24C177.25 152.3 176.41 153.24 175.55 153.24L175.19 152.77C175.19 152.64 175.19 152.5 175.19 152.36L177.63 151.55L178.06 151.97C178.51 152.27 178.93 152.58 178.49 153.19L178.12 153.24Z" fill="#844E3E"/>
<path d="M182.691 152C181.841 153.12 181.031 154.34 179.351 153.26C179.471 152.85 179.141 152.45 179.351 152.04C180.351 151.12 181.551 151.8 182.641 151.57C182.661 151.72 182.671 151.86 182.691 152Z" fill="#484240"/>
<path d="M179.351 152.04C179.231 152.45 180.621 152.85 179.351 153.26L178.54 153.26C178.4 152.86 178.25 152.45 178.11 152.04L179.351 152.04Z" fill="#5F6B6B"/>
<path d="M125.85 155.31C127.17 154.82 128.1 155.87 129.23 156.15C128.5 157.27 127.61 157.83 126.33 156.96C126.33 156.39 125.59 156.02 125.85 155.31Z" fill="#423F3F"/>
<path d="M122.5 155.75L122.59 155.31C123.46 156.15 125.5 156.4 124.1 158.36L123.39 157.81C123.183 157.753 122.991 157.65 122.828 157.508C122.666 157.367 122.537 157.191 122.452 156.993C122.367 156.796 122.327 156.581 122.335 156.366C122.343 156.151 122.4 155.941 122.5 155.75Z" fill="#A26857"/>
<path d="M125.85 155.31C125.97 155.87 127.13 156.13 126.33 156.96C125.67 156.58 125.061 156.17 125.061 155.29L125.85 155.31Z" fill="#656966"/>
<path d="M122.5 155.75L123.41 157.75C122.35 158.36 121.48 157.58 120.59 157.26C119.7 156.94 120.31 156.46 120.75 156.26C121.321 156.049 121.906 155.878 122.5 155.75Z" fill="#F7F8F5"/>
<path fill-rule="evenodd" clip-rule="evenodd" d="M366.12 183.07C366.148 159.027 361.425 135.215 352.221 113.003C343.018 90.7914 329.515 70.6172 312.49 53.6402C295.513 36.6141 275.339 23.1104 253.128 13.9051C230.916 4.69981 207.104 -0.0256463 183.06 0.000201092C139.808 -0.0640945 97.95 15.2915 65.0002 43.3102L64.9302 43.2402C61.0002 46.5302 57.2102 49.9602 53.6302 53.6102C50.0502 57.2602 46.5502 60.9702 43.2602 64.9002L43.3302 64.9802C15.3035 97.9266 -0.0593792 139.786 0.000212407 183.04C-0.0364726 207.084 4.67911 230.898 13.8759 253.114C23.0727 275.329 36.5694 295.508 53.5902 312.49C70.5671 329.516 90.741 343.02 112.953 352.225C135.165 361.431 158.976 366.156 183.02 366.13C226.276 366.186 268.135 350.82 301.08 322.79L301.15 322.86C305.01 319.57 308.8 316.07 312.45 312.49C316.1 308.91 319.53 305.13 322.82 301.2L322.75 301.13C350.801 268.195 366.179 226.332 366.12 183.07ZM183.06 335.45C163.047 335.463 143.227 331.528 124.737 323.872C106.246 316.215 89.4463 304.987 75.3002 290.83C61.1258 276.697 49.8863 259.9 42.2286 241.406C34.5709 222.912 30.6462 203.087 30.6802 183.07C30.6632 147.929 42.8149 113.866 65.0702 86.6702L279.45 301.05C252.278 323.342 218.206 335.502 183.06 335.45ZM301.06 279.45L86.6702 65.0102C113.867 42.7714 147.928 30.6403 183.06 30.6802C203.075 30.6622 222.897 34.5953 241.389 42.2539C259.881 49.9125 276.679 61.146 290.82 75.3102C304.992 89.4473 316.23 106.246 323.888 124.741C331.545 143.236 335.471 163.063 335.44 183.08C335.453 218.215 323.302 252.27 301.05 279.46L301.06 279.45Z" fill="#EC1C24"/>
<path d="M238.381 25.4001C252.001 26.6401 265.451 28.7501 278.281 33.7401C282.151 35.2401 285.851 37.1201 288.711 40.2801C290.061 41.7601 291.031 43.4201 290.451 45.5201C290.251 46.2301 290.451 46.4501 291.061 46.7201C296.471 49.0001 299.761 53.4701 302.351 58.3801C311.021 74.7701 311.571 91.6901 305.111 108.95C304.111 111.67 302.361 114.01 301.021 116.56C300.631 117.2 300.021 117.13 299.361 117.17C280.051 118.36 266.021 128.17 255.701 143.99C255.224 145.054 254.544 146.015 253.701 146.82C253.375 147.025 252.99 147.114 252.608 147.074C252.225 147.034 251.867 146.867 251.591 146.6C250.885 145.904 250.04 145.366 249.11 145.021C248.181 144.676 247.189 144.533 246.201 144.6C245.141 144.71 245.131 143.95 245.501 143.21C246.03 142.241 246.639 141.318 247.321 140.45C250.691 135.81 254.031 131.15 255.921 125.64C257.591 120.75 258.161 115.81 256.701 110.79C255.241 105.77 255.491 100.38 255.811 95.1601C256.221 88.9535 257.294 82.8086 259.011 76.8301C260.869 69.7265 264.093 63.0525 268.501 57.1801C269.918 55.5784 271.612 54.244 273.501 53.2401C274.021 52.978 274.418 52.5218 274.605 51.9699C274.792 51.418 274.754 50.8146 274.501 50.2901C272.431 43.2901 267.751 38.7301 261.041 36.1301C256.173 34.3453 251.025 33.4445 245.841 33.4701C240.318 33.3329 234.794 33.6372 229.321 34.3801C228.968 34.3764 228.623 34.2798 228.321 34.1001C224.241 31.2801 219.891 29.1001 214.861 28.6101C210.521 28.2786 206.158 28.4598 201.861 29.1501C200.566 29.3698 199.25 29.4303 197.941 29.3301C197.647 29.3573 197.352 29.3174 197.076 29.2135C196.801 29.1095 196.553 28.9442 196.351 28.7301C202.601 26.9401 209.031 26.2301 215.451 25.5001C217.111 25.3224 218.781 25.239 220.451 25.2501C221.281 25.1401 233.201 25.1401 234.191 25.2501H236.241C236.957 25.1711 237.682 25.222 238.381 25.4001Z" fill="#CF9A6D"/>
<path d="M238.78 65.8801C235.78 76.6801 229.5 85.5101 222.33 93.8801C219.99 96.6135 217.524 99.2234 214.93 101.71C214.408 102.367 213.717 102.868 212.93 103.16C212.838 103.182 212.743 103.182 212.65 103.16H212.58C212.306 102.921 212.058 102.653 211.84 102.36L211.67 102.19L211.84 102.44C212.046 102.786 212.211 103.155 212.33 103.54L212.42 103.83C212.48 104.07 212.54 104.29 212.61 104.52C212.61 104.927 212.61 105.337 212.61 105.75C212.603 106.755 212.522 107.757 212.37 108.75C212.227 109.689 211.999 110.612 211.69 111.51C210.923 113.718 209.649 115.714 207.97 117.34C206.11 119.17 206.05 119.21 207.35 121.57C208.146 123.025 208.572 124.652 208.59 126.31C208.59 126.81 208.59 127.31 208.59 127.81C208.59 128.13 208.53 128.44 208.49 128.76C208.55 129.721 208.4 130.683 208.05 131.58C206.77 134.35 204.69 135.08 202.05 133.58L201.78 133.42L196.83 128.81L196.57 128.57L196.09 128.12C196.014 127.855 195.857 127.621 195.64 127.45C194.98 126.95 194.34 126.45 193.71 125.89L131.71 68.1301C141.308 57.1591 152.712 47.9121 165.43 40.7901C170.853 37.6684 176.542 35.0347 182.43 32.9201C185 32.5601 187.35 31.4701 189.8 30.7101H189.88L190.13 30.6401C192.42 30.2001 194.63 29.4401 196.94 29.1101C197.35 29.1101 197.76 29.0101 198.18 28.9901H198.33C198.82 29.1001 199.33 29.2301 199.78 29.3701C203.96 30.5301 207.94 32.3701 212.27 33.1001C216.27 33.7401 220.27 34.3201 224.35 33.7401C225.445 33.5721 226.556 33.5285 227.66 33.6101C228.046 33.6331 228.43 33.6765 228.81 33.7401L229.23 34.1601C229.39 34.1601 229.53 34.2701 229.68 34.3301C232.33 35.4701 233.86 37.8401 235.37 40.0701C240.8 48.0701 241.29 56.8001 238.78 65.8801Z" fill="#F3A575"/>
<path d="M231.42 158.77C231.423 159.505 231.379 160.24 231.29 160.97L230.78 160.5L225.19 155.31L224.65 154.81C225.517 154.676 226.394 154.623 227.27 154.65C230.22 154.73 231.42 155.76 231.42 158.77Z" fill="#F3A575"/>
<path d="M198.161 29.1801C195.441 29.9513 192.666 30.5096 189.861 30.8501C189.822 30.8229 189.792 30.7842 189.776 30.7394C189.76 30.6947 189.758 30.646 189.771 30.6001C189.771 30.5101 189.831 30.4701 189.871 30.4701C192.003 29.6921 194.202 29.1097 196.441 28.7301H198.161C198.291 28.8201 198.331 28.9101 198.291 29.0001C198.251 29.0901 198.211 29.1801 198.161 29.1801Z" fill="#E99160"/>
<path d="M189.871 30.4701C189.871 30.6001 189.87 30.7301 189.87 30.8501C187.47 31.8501 185.17 33.1701 182.42 32.9501C184.836 31.9317 187.327 31.1025 189.871 30.4701Z" fill="#E99668"/>
<path d="M226.33 170.66C226.325 170.707 226.325 170.754 226.33 170.8L226.39 170.72L226.33 170.66Z" fill="#E88A55"/>
<path d="M312.211 123.31C309.151 120.46 305.291 119.56 301.311 119.55C294.175 119.52 287.126 121.107 280.691 124.19C270.311 129.12 262.121 136.72 254.941 145.54C254.785 145.743 254.619 145.937 254.441 146.12C254.202 146.291 253.943 146.432 253.671 146.54C252.751 146.76 251.881 146.92 251.541 145.66C251.471 145.38 251.071 144.98 250.851 145C249.031 145.16 247.701 142.43 245.561 144.38C248.471 139.59 251.931 135.51 254.331 130.73C257.331 124.84 259.071 118.73 257.531 112.09C256.668 108.825 256.205 105.467 256.151 102.09C256.225 97.0683 256.635 92.0571 257.381 87.0902C258.561 78.5584 261.271 70.3095 265.381 62.7402C267.611 58.6802 270.471 55.1103 274.871 53.1503C275.008 53.1189 275.138 53.0587 275.251 52.9736C275.363 52.8886 275.457 52.7807 275.525 52.6569C275.593 52.5332 275.634 52.3964 275.645 52.2556C275.657 52.1149 275.638 51.9733 275.591 51.8403C274.918 48.9631 273.769 46.2186 272.191 43.7202C268.371 38.3502 262.851 35.5803 256.621 34.0903C250.201 32.5503 243.621 32.6103 237.111 33.0203C234.531 33.1903 231.731 32.7703 229.271 34.1403L229.501 34.3403C230.141 34.9103 230.791 35.4602 231.391 36.0602C239.071 43.6702 241.071 52.9402 238.931 63.2202C237.247 70.5757 234.068 77.5061 229.591 83.5802C224.687 90.6595 219.001 97.1639 212.641 102.97C212.609 102.992 212.582 103.019 212.561 103.05C212.452 103.153 212.376 103.285 212.341 103.43C212.341 103.43 212.341 103.43 212.341 103.48C212.316 103.612 212.316 103.748 212.341 103.88C212.387 104.061 212.447 104.238 212.521 104.41C212.521 104.83 212.601 105.26 212.621 105.68C212.621 105.94 212.621 106.2 212.621 106.46C212.629 107.205 212.541 107.948 212.361 108.67C212.361 108.82 212.281 108.98 212.221 109.14L211.681 111.43C211.205 114.039 210.107 116.495 208.481 118.59C208.244 118.934 208.102 119.333 208.067 119.749C208.031 120.164 208.105 120.582 208.281 120.96C208.791 122.697 208.897 124.526 208.59 126.31C208.465 127.11 208.292 127.901 208.071 128.68C208.071 128.95 207.941 129.22 207.911 129.49C207.541 133.74 204.911 134.98 201.391 132.65C199.711 131.54 198.521 129.83 196.761 128.85L224.621 154.8L225.161 155.3C225.908 155.217 226.659 155.183 227.411 155.2C229.961 155.26 230.771 155.9 230.841 158.44C230.861 159.132 230.831 159.823 230.751 160.51L231.261 160.98L266.161 193.49C265.938 192.24 265.576 191.019 265.081 189.85C264.421 188.25 265.081 187.85 266.081 187.24C266.767 186.56 267.648 186.109 268.601 185.95C268.901 185.89 269.271 186 269.391 185.57C270.391 184.57 271.841 184.38 273.031 183.68C285.263 176.531 296.252 167.443 305.571 156.77C310.401 151.17 314.191 144.89 315.571 137.49C316.591 132.31 316.481 127.23 312.211 123.31Z" fill="#E88A55"/>
<path d="M269.46 185.56C271.2 183.75 273.58 182.92 275.63 181.56C287.19 174.05 297.87 165.56 306.63 154.73C310.89 149.46 314.14 143.6 315.28 136.85C316.13 131.8 315.87 126.85 311.48 123.2C308.679 121.01 305.194 119.88 301.64 120.01C291.359 119.98 281.329 123.185 272.97 129.17C265.682 134.298 259.252 140.549 253.92 147.69C253.737 147.869 253.54 148.033 253.33 148.18C253.04 147.44 253.69 147.02 253.7 146.49C260.549 133.49 272.141 123.628 286.07 118.95C290.902 117.32 295.971 116.505 301.07 116.54C305.223 116.473 309.318 117.508 312.94 119.54C315.45 120.48 316.71 122.54 317.59 124.87C317.88 125.08 317.76 125.48 317.97 125.73C318.35 127.5 319.12 129.2 318.87 131.07C318.515 132.018 318.515 133.062 318.87 134.01C318.69 140.23 316.12 145.63 312.87 150.72C306.41 160.92 297.38 168.59 287.66 175.49C281.96 179.58 276.13 183.36 269.46 185.56Z" fill="#99411F"/>
<path d="M198.161 29.1801L198.16 28.7702C200.51 29.2202 202.79 28.4802 205.07 28.2202C210.36 27.6002 215.6 27.5702 220.65 29.2202C223.605 30.2467 226.366 31.761 228.82 33.7002C224.974 34.4122 221.052 34.6306 217.15 34.3502C210.47 33.8102 204.301 31.6201 198.161 29.1801Z" fill="#D69F72"/>
<path d="M186.321 35.7701L177.671 40.4501C168.546 45.421 159.961 51.3224 152.051 58.0601C146.613 62.6351 141.593 67.685 137.051 73.1501L134.051 70.3501C138.552 65.227 143.49 60.5058 148.811 56.2401C156.932 49.7402 165.806 44.2407 175.241 39.8601C178.765 38.0766 182.483 36.7043 186.321 35.7701Z" fill="#FABF95"/>
<path d="M212.591 103.41L212.661 104.15C212.941 105.842 212.941 107.568 212.661 109.26C212.031 112.78 211.421 116.31 208.791 119.03C208.141 119.7 208.741 120.32 208.911 120.95C209.332 122.224 209.475 123.573 209.33 124.906C209.185 126.24 208.756 127.527 208.071 128.68C208.341 125.37 207.811 122.28 205.571 119.68C205.041 119.06 205.371 118.73 205.881 118.37C210.731 114.92 212.221 109.96 212.171 104.31C212.071 103.88 211.821 103.4 212.591 103.41Z" fill="#9A421F"/>
<path d="M265.351 164.36C266.032 155.223 269.349 146.479 274.901 139.19C279.691 132.84 285.531 127.83 293.051 124.97C295.366 124.053 297.841 123.611 300.331 123.67C305.161 123.84 308.201 127.18 307.841 132.27C304.781 128.38 300.671 129.61 296.601 129.73C302.071 132.94 301.601 138.1 301.321 143.16C301.282 143.222 301.228 143.273 301.164 143.309C301.1 143.344 301.029 143.363 300.956 143.363C300.883 143.363 300.811 143.344 300.747 143.309C300.683 143.273 300.629 143.222 300.591 143.16C300.271 139.36 299.291 135.87 296.251 133.25C293.971 131.25 291.831 130.94 289.151 132.31C281.568 136.197 275.493 142.494 271.881 150.21C271.727 151.433 271.354 152.619 270.781 153.71C269.454 156.937 268.45 160.286 267.781 163.71C267.521 164.93 267.651 165.63 269.141 165.76C269.797 165.755 270.444 165.923 271.016 166.246C271.588 166.568 272.065 167.035 272.401 167.6C272.801 168.07 273.211 168.52 273.601 168.99C274.41 169.834 274.962 170.89 275.192 172.036C275.422 173.182 275.321 174.37 274.901 175.46C273.951 177.86 271.901 178.65 269.511 178.86C268.901 178.95 268.171 179.51 267.861 178.44C268.311 178.3 268.781 178.18 269.231 178.02C273.391 176.51 274.181 172.71 270.961 169.69C269.061 167.9 268.071 168 265.781 170.18C264.981 168.31 265.941 166.31 265.351 164.36Z" fill="#99411F"/>
<path d="M272.371 167.62C271.001 166.86 269.671 166 267.971 166.26C266.611 166.47 266.881 165.42 266.971 164.78C267.801 159.692 269.449 154.772 271.851 150.21C272.851 150.7 272.971 149.69 273.401 149.32C275.781 147.26 278.251 147.95 278.991 150.99C280.071 155.4 278.701 159.35 276.501 163.14C276.761 161.81 277.091 160.49 277.261 159.14C277.351 158.42 277.581 157.44 276.721 157.14C275.861 156.84 275.391 157.71 274.991 158.29C273.148 161.043 272.231 164.311 272.371 167.62Z" fill="#CD6C3D"/>
</svg>
